<?xml version="1.0" encoding="utf-8"?>
<!-- Generator: Adobe Illustrator 27.8.1, SVG Export Plug-In . SVG Version: 6.00 Build 0)  -->
<svg version="1.1" id="Layer_1" xmlns="http://www.w3.org/2000/svg" xmlns:xlink="http://www.w3.org/1999/xlink" x="0px" y="0px"
	 width="1000px" height="1000px" viewBox="0 0 1000 1000" style="enable-background:new 0 0 1000 1000;" xml:space="preserve">
<style type="text/css">
	.st0{fill:#FFFFFF;}
	.st1{font-family:'MyriadPro-Regular';}
	.st2{font-size:12px;}
	.st3{fill:none;stroke:#000000;stroke-width:2;stroke-linecap:round;stroke-linejoin:round;stroke-miterlimit:10;}
	.st4{fill:none;stroke:#000000;stroke-miterlimit:10;}
	.st5{fill:none;stroke:#000000;stroke-linecap:round;stroke-linejoin:round;stroke-miterlimit:10;}
	.st6{fill:none;stroke:#000000;stroke-width:1.3;stroke-linecap:round;stroke-linejoin:round;stroke-miterlimit:10;}
</style>
<g>
	<rect x="160.3" y="199.7" class="st0" width="126.4" height="92.8"/>
	<path d="M286.3,200.2v91.8H160.8v-91.8H286.3 M287.3,199.2H159.8v93.8h127.4V199.2L287.3,199.2z"/>
</g>
<g>
	<rect x="329.1" y="199.7" class="st0" width="135.7" height="92.8"/>
	<path d="M464.3,200.2V292H329.6v-91.8H464.3 M465.3,199.2H328.6V293h136.7V199.2L465.3,199.2z"/>
</g>
<text transform="matrix(1 0 0 1 165.5045 214.6375)"><tspan x="0" y="0" class="st1 st2">start sessions</tspan><tspan x="0" y="14.4" class="st1 st2">resume session</tspan><tspan x="0" y="28.8" class="st1 st2">local eye tracking </tspan><tspan x="0" y="43.2" class="st1 st2">settints</tspan><tspan x="0" y="57.6" class="st1 st2">...</tspan></text>
<g>
	<rect x="119.1" y="350.3" class="st0" width="400.4" height="223.5"/>
	<path d="M519,350.8v222.5H119.6V350.8H519 M520,349.8H118.6v224.5H520V349.8L520,349.8z"/>
</g>
<text transform="matrix(1 0 0 1 130.6916 369.6991)" class="st1 st2">Remote session</text>
<g>
	<path d="M527.9,128.3c0-1.9-1.5-3.4-3.4-3.4c-1.9,0-3.4,1.5-3.4,3.4v9.7c0,1.9,1.5,3.4,3.4,3.4c1.9,0,3.4-1.5,3.4-3.4V128.3z"/>
	<path class="st3" d="M517.8,134.7v3.4c0,3.7,3,6.8,6.8,6.8c3.7,0,6.8-3,6.8-6.8v-3.4"/>
	<line class="st3" x1="524.6" y1="144.9" x2="524.6" y2="149.4"/>
	<line class="st3" x1="529.1" y1="149.4" x2="520" y2="149.4"/>
</g>
<g>
	<g>
		<path d="M667.4,147.4c0-1.3-1-2.3-2.3-2.3c-1.3,0-2.3,1-2.3,2.3v6.7c0,1.3,1,2.3,2.3,2.3c1.3,0,2.3-1,2.3-2.3V147.4z"/>
		<path d="M670.4,154.1v-2.3c0-0.4-0.3-0.7-0.7-0.7s-0.7,0.3-0.7,0.7v2.3c0,2.2-1.8,4-4,4c-2.2,0-4-1.8-4-4v-2.3
			c0-0.4-0.3-0.7-0.7-0.7s-0.7,0.3-0.7,0.7v2.3c0,2.7,2,4.9,4.6,5.3v1.8H662c-0.4,0-0.7,0.3-0.7,0.7s0.3,0.7,0.7,0.7h6.2
			c0.4,0,0.7-0.3,0.7-0.7s-0.3-0.7-0.7-0.7h-2.4v-1.8C668.4,159,670.4,156.8,670.4,154.1z"/>
	</g>
	<g>
		<path d="M658.3,158.6c-0.2,0-0.4-0.1-0.6-0.3c-0.2-0.3-0.2-0.7,0.1-1l13.6-10.1c0.3-0.2,0.7-0.2,1,0.1c0.2,0.3,0.2,0.7-0.1,1
			l-13.6,10.1C658.6,158.6,658.5,158.6,658.3,158.6z"/>
	</g>
</g>
<g>
	<g>
		<path d="M739.7,235v-1.7c0-1.3-1-2.3-2.3-2.3s-2.3,1-2.3,2.3v5.1L739.7,235z"/>
		<path d="M736.1,241.9c0.4,0.3,0.8,0.4,1.3,0.4c1.3,0,2.3-1,2.3-2.3v-0.8L736.1,241.9z"/>
	</g>
	<g>
		<path d="M733.4,239.7v-2c0-0.4-0.3-0.7-0.7-0.7s-0.7,0.3-0.7,0.7v2.3c0,0.2,0,0.4,0.1,0.7L733.4,239.7z"/>
		<path d="M742.5,237.1l-1.1,0.8v2c0,2.2-1.8,4-4,4c-1,0-2-0.4-2.7-1l-1.1,0.8c0.8,0.8,1.9,1.4,3.1,1.5v1.8h-2.4
			c-0.4,0-0.7,0.3-0.7,0.7c0,0.4,0.3,0.7,0.7,0.7h6.2c0.4,0,0.7-0.3,0.7-0.7c0-0.4-0.3-0.7-0.7-0.7h-2.4v-1.8
			c2.6-0.3,4.6-2.6,4.6-5.3v-2.3C742.7,237.4,742.6,237.3,742.5,237.1z"/>
	</g>
	<path d="M730.6,244.5c-0.2,0-0.4-0.1-0.6-0.3c-0.2-0.3-0.2-0.7,0.1-1l13.6-10.1c0.3-0.2,0.7-0.2,1,0.1c0.2,0.3,0.2,0.7-0.1,1
		L731,244.4C730.9,244.5,730.8,244.5,730.6,244.5z"/>
</g>
<g>
	<path class="st4" d="M708.7,326.6h-110c-2.8,0-5-2.2-5-5v-90c0-2.8,2.2-5,5-5h110c2.8,0,5,2.2,5,5v90
		C713.7,324.4,711.5,326.6,708.7,326.6z"/>
	<path class="st4" d="M838.7,326.6h-110c-2.8,0-5-2.2-5-5v-90c0-2.8,2.2-5,5-5h110c2.8,0,5,2.2,5,5v90
		C843.7,324.4,841.5,326.6,838.7,326.6z"/>
</g>
<path class="st4" d="M838.7,336.6h-240c-8.3,0-15-6.7-15-15v-90c0-8.3,6.7-15,15-15h240c8.3,0,15,6.7,15,15v90
	C853.7,329.9,847,336.6,838.7,336.6z"/>
<g>
	<path d="M797.5,193.4c0-1.3-1-2.3-2.3-2.3c-1.3,0-2.3,1-2.3,2.3v6.7c0,1.3,1,2.3,2.3,2.3c1.3,0,2.3-1,2.3-2.3V193.4z"/>
	<path d="M800.6,200.1v-2.3c0-0.4-0.3-0.7-0.7-0.7s-0.7,0.3-0.7,0.7v2.3c0,2.2-1.8,4-4,4c-2.2,0-4-1.8-4-4v-2.3
		c0-0.4-0.3-0.7-0.7-0.7s-0.7,0.3-0.7,0.7v2.3c0,2.7,2,4.9,4.6,5.3v1.8h-2.4c-0.4,0-0.7,0.3-0.7,0.7c0,0.4,0.3,0.7,0.7,0.7h6.2
		c0.4,0,0.7-0.3,0.7-0.7c0-0.4-0.3-0.7-0.7-0.7h-2.4v-1.8C798.5,205.1,800.6,202.8,800.6,200.1z"/>
</g>
<polyline class="st5" points="721.5,332.7 718.7,329.3 716,332.7 "/>
<path d="M616.3,235.2c-0.2-0.1-0.4-0.1-0.5,0.1l-1.8,1.5v-2.5c0-0.3-0.2-0.5-0.5-0.5h-11.7c-0.3,0-0.5,0.2-0.5,0.5v9.2
	c0,0.3,0.2,0.5,0.5,0.5h11.7c0.3,0,0.5-0.2,0.5-0.5v-2.5l1.8,1.5c0.2,0.1,0.4,0.1,0.5,0.1c0.2-0.1,0.3-0.3,0.3-0.5v-6.4
	C616.5,235.5,616.4,235.3,616.3,235.2z"/>
<path d="M637,185.2c-0.2-0.1-0.4-0.1-0.5,0.1l-1.8,1.5v-2.5c0-0.3-0.2-0.5-0.5-0.5h-11.7c-0.3,0-0.5,0.2-0.5,0.5v9.2
	c0,0.3,0.2,0.5,0.5,0.5h11.7c0.3,0,0.5-0.2,0.5-0.5v-2.5l1.8,1.5c0.2,0.1,0.4,0.1,0.5,0.1c0.2-0.1,0.3-0.3,0.3-0.5v-6.4
	C637.3,185.5,637.2,185.3,637,185.2z"/>
<g>
	<g>
		<path d="M759,197.1h-10.1c-0.3,0-0.5,0.2-0.5,0.5v6.9L759,197.1z"/>
		<path d="M763.5,198.6c-0.2-0.1-0.4-0.1-0.5,0.1l-1.8,1.5v-0.5l-11,7.6h10.5c0.3,0,0.5-0.2,0.5-0.5v-2.5l1.8,1.5
			c0.2,0.1,0.4,0.1,0.5,0.1c0.2-0.1,0.3-0.3,0.3-0.5V199C763.7,198.8,763.6,198.7,763.5,198.6z"/>
	</g>
	<path d="M745.5,209.2c-0.2,0-0.4-0.1-0.5-0.3c-0.2-0.3-0.1-0.7,0.2-0.9l18.6-13c0.3-0.2,0.7-0.1,0.9,0.2c0.2,0.3,0.1,0.7-0.2,0.9
		l-18.6,13C745.8,209.1,745.7,209.2,745.5,209.2z"/>
</g>
<g>
	<path d="M665.3,191h-9.6c-0.8,0-1.4,0.6-1.4,1.4v6.2L665.3,191z"/>
	<path d="M669,192.9l-1.9,1.5v-0.7l-10.6,7.4h9.2c0.8,0,1.4-0.6,1.4-1.4v-2l1.9,1.5c0.4,0.3,0.9,0,0.9-0.5v-5.4
		C669.9,192.9,669.3,192.6,669,192.9z"/>
</g>
<line class="st6" x1="668.8" y1="190.5" x2="653.2" y2="201.4"/>
</svg>
