<?xml version="1.0" encoding="utf-8"?>
<!-- Generator: Adobe Illustrator 27.9.4, SVG Export Plug-In . SVG Version: 9.03 Build 54784)  -->
<svg version="1.1" id="Layer_1" xmlns="http://www.w3.org/2000/svg" xmlns:xlink="http://www.w3.org/1999/xlink" x="0px" y="0px"
	 viewBox="0 0 13.2 17.5" style="enable-background:new 0 0 13.2 17.5;" xml:space="preserve">
<path d="M9.1,13.4H6.6c-0.3,0-0.5-0.2-0.5-0.5s0.2-0.5,0.5-0.5h2.5c1.1,0,2.1-0.9,2.1-2.1V6.6c0-1.2-0.9-2.1-2.2-2.1H4.1
	C3,4.6,2.1,5.5,2.1,6.6v1.2c0,0.3-0.2,0.5-0.5,0.5S1.1,8.2,1.1,7.9V6.6c0-1.7,1.4-3.1,3.1-3.1H9c1.8,0,3.2,1.3,3.2,3.1v3.7
	C12.1,12,10.8,13.4,9.1,13.4z"/>
<circle cx="1.6" cy="12.9" r="0.5"/>
<path d="M5.1,13.4c-0.3,0-0.5-0.2-0.5-0.5c0-1.7-1.4-3-3-3c-0.3,0-0.5-0.2-0.5-0.5s0.2-0.5,0.5-0.5c2.2,0,4,1.8,4,4
	C5.6,13.2,5.3,13.4,5.1,13.4z"/>
<path d="M3.3,13.4c-0.3,0-0.5-0.2-0.5-0.5c0-0.7-0.6-1.3-1.3-1.3c-0.3,0-0.5-0.2-0.5-0.5s0.2-0.5,0.5-0.5c1.2,0,2.2,1,2.2,2.2
	C3.8,13.2,3.6,13.4,3.3,13.4z"/>
</svg>
