<?xml version="1.0" encoding="utf-8"?>
<!-- Generator: Adobe Illustrator 27.9.1, SVG Export Plug-In . SVG Version: 6.00 Build 0)  -->
<svg version="1.1" id="Layer_1" xmlns="http://www.w3.org/2000/svg" xmlns:xlink="http://www.w3.org/1999/xlink" x="0px" y="0px"
	 viewBox="0 0 15.8 15.9" style="enable-background:new 0 0 15.8 15.9;" xml:space="preserve">
<g id="cali-fill">
	<g>
		<path d="M7.9,11c-1.7,0-3-1.4-3-3c0-1.7,1.4-3,3-3s3,1.4,3,3C10.9,9.7,9.6,11,7.9,11z M7.9,6.4C7,6.4,6.3,7.1,6.3,8S7,9.6,7.9,9.6
			S9.5,8.9,9.5,8S8.8,6.4,7.9,6.4z"/>
	</g>
	<g>
		<path d="M7.9,15.7c-4.3,0-7.7-3.5-7.7-7.7s3.5-7.7,7.7-7.7s7.7,3.5,7.7,7.7S12.1,15.7,7.9,15.7z M7.9,1.6C4.4,1.6,1.6,4.5,1.6,8
			s2.8,6.3,6.3,6.3s6.3-2.8,6.3-6.3S11.4,1.6,7.9,1.6z"/>
	</g>
</g>
</svg>
