<?xml version="1.0" encoding="UTF-8"?>
<svg xmlns="http://www.w3.org/2000/svg" version="1.1" viewBox="0 0 13.2 17.5">
  <!-- Generator: Adobe Illustrator 28.7.1, SVG Export Plug-In . SVG Version: 1.2.0 Build 142)  -->
  <g>
    <g id="Layer_1">
      <path d="M4.7,10.6c-1,0-1.8-.8-1.8-1.9s.8-1.9,1.8-1.9.9.2,1.3.6c.2.2.2.5,0,.7-.2.2-.5.2-.7,0-.2-.2-.4-.2-.6-.2-.4,0-.8.4-.8.9s.4.9.8.9.4,0,.6-.2c.2-.2.5-.2.7,0,.2.2.2.5,0,.7-.3.4-.8.6-1.3.6Z"/>
      <path d="M8.8,10.6c-1,0-1.8-.8-1.8-1.9s.8-1.9,1.8-1.9.9.2,1.3.6c.2.2.2.5,0,.7-.2.2-.5.2-.7,0-.2-.2-.4-.3-.6-.3-.4,0-.8.4-.8.9s.4.9.8.9.4,0,.6-.3c.2-.2.5-.2.7,0,.2.2.2.5,0,.7-.3.4-.8.6-1.3.6Z"/>
      <path d="M10.7,13H2.4c-1,0-1.7-.8-1.7-1.7v-5.1c0-1,.8-1.7,1.7-1.7h8.3c1,0,1.7.8,1.7,1.7v5.1c0,1-.8,1.7-1.7,1.7ZM2.4,5.5c-.4,0-.7.3-.7.7v5.1c0,.4.3.7.7.7h8.3c.4,0,.7-.3.7-.7v-5.1c0-.4-.3-.7-.7-.7H2.4Z"/>
    </g>
  </g>
</svg>