<?xml version="1.0" encoding="UTF-8"?>
<svg xmlns="http://www.w3.org/2000/svg" version="1.1" viewBox="0 0 13.2 17.5">
  <!-- Generator: Adobe Illustrator 28.7.2, SVG Export Plug-In . SVG Version: 1.2.0 Build 154)  -->
  <g>
    <g id="Layer_1">
      <g id="Layer_1-2" data-name="Layer_1">
        <path d="M10.7,12.95H2.4c-1,0-1.7-.8-1.7-1.7v-5.1c0-1,.8-1.7,1.7-1.7h8.3c1,0,1.7.8,1.7,1.7v5.1c0,1-.8,1.7-1.7,1.7ZM2.4,5.45c-.4,0-.7.3-.7.7v5.1c0,.4.3.7.7.7h8.3c.4,0,.7-.3.7-.7v-5.1c0-.4-.3-.7-.7-.7,0,0-8.3,0-8.3,0Z"/>
        <g>
          <path d="M4.699,10.675c-1.089,0-1.975-.886-1.975-1.975s.886-1.975,1.975-1.975c.528,0,1.024.206,1.396.579.195.195.195.512,0,.707-.194.194-.512.195-.707,0-.184-.184-.428-.285-.688-.285-.538,0-.975.438-.975.975s.438.975.975.975c.26,0,.505-.102.689-.285.195-.195.512-.195.707,0s.195.512,0,.707c-.373.373-.869.578-1.396.578Z"/>
          <path d="M8.834,10.675c-1.089,0-1.975-.886-1.975-1.975s.886-1.975,1.975-1.975c.528,0,1.024.206,1.396.579.195.195.195.512,0,.707-.194.194-.512.195-.707,0-.184-.184-.428-.285-.688-.285-.538,0-.975.438-.975.975s.438.975.975.975c.26,0,.505-.102.689-.285.195-.195.512-.195.707,0s.195.512,0,.707c-.373.373-.869.578-1.396.578Z"/>
        </g>
      </g>
    </g>
  </g>
</svg>