<?xml version="1.0" encoding="utf-8"?>
<!-- Generator: Adobe Illustrator 27.8.1, SVG Export Plug-In . SVG Version: 6.00 Build 0)  -->
<svg version="1.1" id="Layer_1" xmlns="http://www.w3.org/2000/svg" xmlns:xlink="http://www.w3.org/1999/xlink" x="0px" y="0px"
	 width="13.2px" height="17.5px" viewBox="0 0 13.2 17.5" style="enable-background:new 0 0 13.2 17.5;" xml:space="preserve">
<path id="i-end" d="M10.3,10.4C9.4,10.1,9,10,8.9,9.6c-0.1-0.3-0.1-1-0.1-1S7.7,8.4,6.6,8.4c-1.1,0-2.2,0.3-2.2,0.3s0.1,0.6-0.1,1
	c-0.2,0.4-0.5,0.4-1.4,0.8c-0.9,0.3-1.5,0.4-1.8,0.2c-0.3-0.2-0.6-1.4-0.3-1.9C1,8.2,1.5,7.9,2.7,7.4c1.3-0.5,2.1-0.7,3.9-0.7
	c1.8,0,2.7,0.1,3.9,0.7c1.2,0.5,1.7,0.8,1.9,1.3c0.3,0.5,0,1.7-0.3,1.9C11.8,10.8,11.2,10.7,10.3,10.4z"/>
</svg>
