<?xml version="1.0" encoding="utf-8"?>
<!-- Generator: Adobe Illustrator 27.9.1, SVG Export Plug-In . SVG Version: 6.00 Build 0)  -->
<svg version="1.1" id="Layer_1" xmlns="http://www.w3.org/2000/svg" xmlns:xlink="http://www.w3.org/1999/xlink" x="0px" y="0px"
	 viewBox="0 0 13.2 11.7" style="enable-background:new 0 0 13.2 11.7;" xml:space="preserve">
<path id="i-end" d="M10.7,7.7c-1-0.3-1.4-0.4-1.5-0.9C9,6.5,9,5.7,9,5.7S7.8,5.5,6.6,5.5S4.2,5.8,4.2,5.8s0.1,0.7-0.1,1.1
	C3.8,7.3,3.5,7.3,2.5,7.8c-1,0.3-1.7,0.4-2,0.2C0.2,7.8-0.1,6.5,0.2,5.9c0.2-0.7,0.8-1,2.1-1.5c1.4-0.6,2.3-0.8,4.3-0.8
	s3,0.1,4.3,0.8c1.3,0.6,1.9,0.9,2.1,1.4c0.3,0.6,0,1.9-0.3,2.1C12.3,8.1,11.7,8,10.7,7.7z"/>
</svg>
