 <svg id="Layer_1" data-name="Layer 1" xmlns="http://www.w3.org/2000/svg" viewBox="0 0 13.2 17.5">
    <mask id="myMask">
        <rect id = "mask-bg" x = "0" y="0" width="13.2" height="17.5"></rect>
        <path id ="mask-rm" d="m0,0v17.5h13.2V0H0Zm12.3,10.6c0,1.6-1.3,2.9-2.9,2.9H3.8c-1.6,0-2.9-1.3-2.9-2.9v-4.9c0-1.2,1-2.2,2.2-2.2h3.5c1.13,0,2.07.89,2.18,2h.52c1.7,0,3,1.3,3,2.9v2.2Z"/>
    </mask>
    <g opacity="0.5">
        <path d="M12.3,8.4v2.2c0,1.6-1.3,2.9-2.9,2.9H3.8c-1.6,0-2.9-1.3-2.9-2.9V8.4c0-1.6,1.3-2.9,2.9-2.9h5.5C11,5.5,12.3,6.8,12.3,8.4z"/>
        <path d="M0.9,9.3l3.5-2.1l4.4-1.5c0-1.2-1-2.2-2.2-2.2H3.1c-1.2,0-2.2,1-2.2,2.2C0.9,5.7,0.9,9.3,0.9,9.3z"/>
    </g>
</svg>