<?xml version="1.0" encoding="utf-8"?>
<!-- Generator: Adobe Illustrator 27.8.1, SVG Export Plug-In . SVG Version: 6.00 Build 0)  -->
<svg version="1.1" id="Layer_1" xmlns="http://www.w3.org/2000/svg" xmlns:xlink="http://www.w3.org/1999/xlink" x="0px" y="0px"
	 width="12px" height="12.9px" viewBox="0 0 12 12.9" style="enable-background:new 0 0 12 12.9;" xml:space="preserve">
<path d="M8.7,1.3c-1.8,0-3.2,1.4-3.2,3.2c0,0.7,0.2,1.3,0.6,1.8L3.9,8.5L2.1,6.8c-0.2-0.2-0.6-0.2-0.8,0C1,7,1,7.4,1.3,7.6L3,9.4
	L2.4,10L1.1,8.8c-0.2-0.2-0.6-0.2-0.8,0C0.1,9,0.1,9.4,0.3,9.6l1.7,1.7c0.1,0.1,0.3,0.2,0.4,0.2s0.3-0.1,0.4-0.2l1.5-1.5
	c0,0,0,0,0,0c0,0,0,0,0,0l2.6-2.6C7.4,7.6,8,7.8,8.7,7.8c1.8,0,3.2-1.4,3.2-3.2C11.9,2.8,10.4,1.3,8.7,1.3z M8.7,6.6
	C8.1,6.6,7.6,6.4,7.2,6c0,0,0,0,0,0c0,0,0,0,0,0C6.9,5.6,6.6,5.1,6.6,4.5c0-1.1,0.9-2,2-2c1.1,0,2,0.9,2,2S9.8,6.6,8.7,6.6z"/>
</svg>
