<?xml version="1.0" encoding="utf-8"?>
<!-- Generator: Adobe Illustrator 27.8.1, SVG Export Plug-In . SVG Version: 6.00 Build 0)  -->
<svg version="1.1" id="Layer_1" xmlns="http://www.w3.org/2000/svg" xmlns:xlink="http://www.w3.org/1999/xlink" x="0px" y="0px"
	 width="13.2px" height="17.5px" viewBox="0 0 13.2 17.5" style="enable-background:new 0 0 13.2 17.5;" xml:space="preserve">
<style type="text/css">
	.st0{fill:#FFFFFF;}
	.st1{fill:none;stroke:#000000;stroke-width:2;stroke-linecap:round;stroke-linejoin:round;stroke-miterlimit:10;}
	.st2{fill:none;stroke:#000000;stroke-miterlimit:10;}
	.st3{fill:none;stroke:#000000;stroke-linecap:round;stroke-linejoin:round;stroke-miterlimit:10;}
	.st4{fill:none;stroke:#000000;stroke-width:1.3;stroke-linecap:round;stroke-linejoin:round;stroke-miterlimit:10;}
</style>
<g>
	<g>
		<path d="M8.9,4V2.4c0-1.3-1-2.3-2.3-2.3s-2.3,1-2.3,2.3v5.1L8.9,4z"/>
		<path d="M5.3,10.9c0.4,0.3,0.8,0.4,1.3,0.4c1.3,0,2.3-1,2.3-2.3V8.2L5.3,10.9z"/>
	</g>
	<g>
		<path d="M2.7,8.7v-2C2.7,6.3,2.4,6,2,6S1.3,6.3,1.3,6.7V9c0,0.2,0,0.4,0.1,0.7L2.7,8.7z"/>
		<path d="M11.7,6.2L10.6,7v2c0,2.2-1.8,4-4,4c-1,0-2-0.4-2.7-1l-1.1,0.8c0.8,0.8,1.9,1.4,3.1,1.5v1.8H3.5c-0.4,0-0.7,0.3-0.7,0.7
			c0,0.4,0.3,0.7,0.7,0.7h6.2c0.4,0,0.7-0.3,0.7-0.7c0-0.4-0.3-0.7-0.7-0.7H7.3v-1.8C9.9,14,12,11.7,12,9V6.7
			C12,6.5,11.9,6.3,11.7,6.2z"/>
	</g>
	<g>
		<path d="M1.1,12.6c-0.2,0-0.4-0.1-0.5-0.3c-0.2-0.3-0.2-0.7,0.1-0.9l11.1-8.2c0.3-0.2,0.7-0.2,0.9,0.1c0.2,0.3,0.2,0.7-0.1,0.9
			L1.5,12.5C1.4,12.6,1.2,12.6,1.1,12.6z"/>
	</g>
</g>
</svg>
