<?xml version="1.0" encoding="utf-8"?>
<!-- Generator: Adobe Illustrator 27.8.1, SVG Export Plug-In . SVG Version: 6.00 Build 0)  -->
<svg version="1.1" id="Layer_1" xmlns="http://www.w3.org/2000/svg" xmlns:xlink="http://www.w3.org/1999/xlink" x="0px" y="0px"
	 width="17.5px" height="12.5px" viewBox="0 0 17.5 12.5" style="enable-background:new 0 0 17.5 12.5;" xml:space="preserve">
<style type="text/css">
	.st0{fill:#FFFFFF;}
	.st1{fill:none;stroke:#000000;stroke-width:2;stroke-linecap:round;stroke-linejoin:round;stroke-miterlimit:10;}
	.st2{fill:none;stroke:#000000;stroke-miterlimit:10;}
	.st3{fill:none;stroke:#000000;stroke-linecap:round;stroke-linejoin:round;stroke-miterlimit:10;}
	.st4{fill:none;stroke:#000000;stroke-width:1.3;stroke-linecap:round;stroke-linejoin:round;stroke-miterlimit:10;}
</style>
<g>
	<g>
		<path d="M12.8,1.3H3.3c-0.8,0-1.4,0.6-1.4,1.4v6.2L12.8,1.3z"/>
		<path d="M16.5,3.2l-1.9,1.5V4.1L4,11.4h9.2c0.8,0,1.4-0.6,1.4-1.4V8l1.9,1.5c0.4,0.3,0.9,0,0.9-0.5V3.7
			C17.4,3.2,16.9,2.9,16.5,3.2z"/>
	</g>
	<g>
		<path d="M0.7,12.3c-0.2,0-0.4-0.1-0.5-0.3C0,11.8,0,11.4,0.3,11.2L16,0.3c0.3-0.2,0.7-0.1,0.9,0.2c0.2,0.3,0.1,0.7-0.2,0.9
			L1.1,12.2C1,12.3,0.8,12.3,0.7,12.3z"/>
	</g>
</g>
</svg>
