<?xml version="1.0" encoding="utf-8"?>
<!-- Generator: Adobe Illustrator 27.9.4, SVG Export Plug-In . SVG Version: 9.03 Build 54784)  -->
<svg version="1.1" id="Layer_1" xmlns="http://www.w3.org/2000/svg" xmlns:xlink="http://www.w3.org/1999/xlink" x="0px" y="0px"
	 viewBox="0 0 13.2 17.5" style="enable-background:new 0 0 13.2 17.5;" xml:space="preserve">
<path d="M9.3,3.5H3.8c-1.6,0-2.9,1.3-2.9,2.9v4.2c0,1.6,1.3,2.9,2.9,2.9h5.6c1.6,0,2.9-1.3,2.9-2.9V6.4C12.3,4.8,11,3.5,9.3,3.5z
	 M8.8,8.4C8.7,8.5,8.5,8.6,8.3,8.6S8,8.5,7.8,8.4L7.3,7.8v3c0,0.4-0.3,0.7-0.7,0.7s-0.7-0.3-0.7-0.7v-3L5.4,8.4
	C5.2,8.5,5.1,8.6,4.9,8.6S4.5,8.5,4.4,8.4c-0.3-0.3-0.3-0.7,0-1l1.7-1.7c0,0,0,0,0,0c0.1-0.1,0.1-0.1,0.2-0.1c0.2-0.1,0.3-0.1,0.5,0
	c0,0,0,0,0,0c0.1,0,0.1,0.1,0.2,0.1c0,0,0,0,0,0l1.7,1.7C9.1,7.7,9.1,8.1,8.8,8.4z"/>
</svg>
