<?xml version="1.0" encoding="utf-8"?>
<!-- Generator: Adobe Illustrator 27.8.1, SVG Export Plug-In . SVG Version: 6.00 Build 0)  -->
<svg version="1.1" id="Layer_1" xmlns="http://www.w3.org/2000/svg" xmlns:xlink="http://www.w3.org/1999/xlink" x="0px" y="0px"
	 width="13.2px" height="17.5px" viewBox="0 0 13.2 17.5" style="enable-background:new 0 0 13.2 17.5;" xml:space="preserve">
<style type="text/css">
	.st0{fill:#FFFFFF;}
	.st1{fill:none;stroke:#000000;stroke-width:2;stroke-linecap:round;stroke-linejoin:round;stroke-miterlimit:10;}
	.st2{fill:none;stroke:#000000;stroke-miterlimit:10;}
	.st3{fill:none;stroke:#000000;stroke-linecap:round;stroke-linejoin:round;stroke-miterlimit:10;}
	.st4{fill:none;stroke:#000000;stroke-width:1.3;stroke-linecap:round;stroke-linejoin:round;stroke-miterlimit:10;}
</style>
<g>
	<path d="M8.9,2.4c0-1.3-1-2.3-2.3-2.3s-2.3,1-2.3,2.3V9c0,1.3,1,2.3,2.3,2.3s2.3-1,2.3-2.3V2.4z"/>
	<path d="M12,9V6.7C12,6.3,11.6,6,11.3,6s-0.7,0.3-0.7,0.7V9c0,2.2-1.8,4-4,4c-2.2,0-4-1.8-4-4V6.7C2.7,6.3,2.4,6,2,6
		S1.3,6.3,1.3,6.7V9c0,2.7,2,4.9,4.6,5.3v1.8H3.5c-0.4,0-0.7,0.3-0.7,0.7s0.3,0.7,0.7,0.7h6.2c0.4,0,0.7-0.3,0.7-0.7
		s-0.3-0.7-0.7-0.7H7.3v-1.8C9.9,14,12,11.7,12,9z"/>
</g>
</svg>
