<?xml version="1.0" encoding="utf-8"?>
<!-- Generator: Adobe Illustrator 27.9.4, SVG Export Plug-In . SVG Version: 9.03 Build 54784)  -->
<svg version="1.1" id="Layer_1" xmlns="http://www.w3.org/2000/svg" xmlns:xlink="http://www.w3.org/1999/xlink" x="0px" y="0px"
	 viewBox="0 0 27 27" style="enable-background:new 0 0 27 27;" xml:space="preserve">
<style type="text/css">
	.st0{fill:#414042;}
</style>
<g>
	<path class="st0" d="M22.9,27H4.1C1.9,27,0,25.2,0,22.9V4.1C0,1.9,1.9,0,4.1,0h18.7C25.2,0,27,1.9,27,4.1v18.7
		C27,25.2,25.2,27,22.9,27z M4.1,1.5c-1.5,0-2.6,1.2-2.6,2.6v18.7c0,1.5,1.2,2.6,2.6,2.6h18.7c1.5,0,2.6-1.2,2.6-2.6V4.1
		c0-1.5-1.2-2.6-2.6-2.6H4.1z"/>
</g>
<path class="st0" d="M18.3,3.8h-8.2c-1.5,0-2.8,1.3-2.8,2.8v2.5c0,1.5,1.3,2.8,2.8,2.8h8.2c1.5,0,2.8-1.3,2.8-2.8V6.6
	C21.1,5.1,19.8,3.8,18.3,3.8z M8.8,9.1V6.6c0-0.7,0.6-1.3,1.3-1.3h7.8v5.1h-7.8C9.4,10.4,8.8,9.8,8.8,9.1z"/>
</svg>
