<?xml version="1.0" encoding="utf-8"?>
<!-- Generator: Adobe Illustrator 27.9.4, SVG Export Plug-In . SVG Version: 9.03 Build 54784)  -->
<svg version="1.1" xmlns="http://www.w3.org/2000/svg" xmlns:xlink="http://www.w3.org/1999/xlink" x="0px" y="0px"
	 viewBox="0 0 386.5 430.9" style="enable-background:new 0 0 386.5 430.9;" xml:space="preserve">
<g id="Layer_2">
</g>
<g id="svg">
	<g>
		<path style="fill:#4885BB;stroke:#000000;stroke-linecap:round;stroke-linejoin:round;stroke-miterlimit:10;" d="M41.8,50L41.8,50
			C25.7,50,12.6,63,12.6,79.1V241c0,16.1,13.1,29.2,29.2,29.2h0c16.1,0,29.2-13.1,29.2-29.2V79.1C71,63,57.9,50,41.8,50z"/>
		<path style="fill:#EFCFAC;stroke:#000000;stroke-linecap:round;stroke-linejoin:round;stroke-miterlimit:10;" d="M182.1,37.5
			C108.3,37.5,71,78.3,71,78.3v167c0,0,45.8,49.2,72.8,51.1s119.1-48,119.1-48V56.8l8.8-19.3H182.1z"/>
		<path style="fill:#EFCFAC;stroke:#000000;stroke-linecap:round;stroke-linejoin:round;stroke-miterlimit:10;" d="M145.2,160.8
			c0,0,12-6,53.7,17s30.6,58.1,34.3,69.1s13.4,22.9,24.1,35.5c10.8,12.6,21,29,21,60.2s-27.9,51.5-42,51.5s-18-8.8-17.5-20.8
			c0.5-12-0.7-27.9-4-36.1s-17-25.2-32.6-31.8s-45.7-5.5-67.6-22.5"/>
		<path style="fill:#EFCFAC;stroke:#000000;stroke-linecap:round;stroke-linejoin:round;stroke-miterlimit:10;" d="M349.9,66.2v-1
			c0-15.7-12.7-28.4-28.4-28.4h-52.3c-15.7,0-28.4,12.7-28.4,28.4v1c0,15.7,12.7,28.4,28.4,28.4h52.3
			C337.2,94.7,349.9,81.9,349.9,66.2z"/>
		<path style="fill:#EFCFAC;stroke:#000000;stroke-linecap:round;stroke-linejoin:round;stroke-miterlimit:10;" d="M366.3,124.1v-1
			c0-15.7-12.7-28.4-28.4-28.4H272c-15.7,0-28.4,12.7-28.4,28.4v1c0,15.7,12.7,28.4,28.4,28.4h65.9
			C353.6,152.5,366.3,139.8,366.3,124.1z"/>
		<path style="fill:#EFCFAC;stroke:#000000;stroke-linecap:round;stroke-linejoin:round;stroke-miterlimit:10;" d="M373.9,182v-1
			c0-15.7-12.7-28.4-28.4-28.4h-76.3c-15.7,0-28.4,12.7-28.4,28.4v1c0,15.7,12.7,28.4,28.4,28.4h76.3
			C361.2,210.4,373.9,197.7,373.9,182z"/>
		<path style="fill:#EFCFAC;stroke:#000000;stroke-linecap:round;stroke-linejoin:round;stroke-miterlimit:10;" d="M373.9,239.8v-1
			c0-15.7-12.7-28.4-28.4-28.4h-84c-15.7,0-28.4,12.7-28.4,28.4v1c0,15.7,12.7,28.4,28.4,28.4h84
			C361.2,268.2,373.9,255.5,373.9,239.8z"/>
	</g>
</g>
</svg>
