<?xml version="1.0" encoding="utf-8"?>
<!-- Generator: Adobe Illustrator 27.9.4, SVG Export Plug-In . SVG Version: 9.03 Build 54784)  -->
<svg version="1.1" xmlns="http://www.w3.org/2000/svg" xmlns:xlink="http://www.w3.org/1999/xlink" x="0px" y="0px"
	 viewBox="0 0 463.5 430.9" style="enable-background:new 0 0 463.5 430.9;" xml:space="preserve">
<g id="Layer_2">
</g>
<g id="svg">
	<path style="fill:#49200F;stroke:#000000;stroke-linecap:round;stroke-linejoin:round;stroke-miterlimit:10;" d="M199.5,353.8
		c2.5-3.9,10.1,7.6,5.4,20.2c-3.7,9.9-22,29.5-20.8,19.8C185.3,384.1,182.9,380.1,199.5,353.8z"/>
	<path style="fill:#49200F;stroke:#000000;stroke-linecap:round;stroke-linejoin:round;stroke-miterlimit:10;" d="M192.2,369.5
		c2.3-2.9,10.1,7.1,5.4,19.7c-3.7,9.9-22,29.5-20.8,19.8C178.1,399.2,172.8,393.8,192.2,369.5z"/>
	<path style="fill:none;stroke:#000000;stroke-width:3;stroke-linecap:round;stroke-linejoin:round;stroke-miterlimit:10;" d="
		M321.8,191.1c-12.3,38.9,0,28.7-47.4,52"/>
	<path style="fill:none;stroke:#000000;stroke-width:3;stroke-linecap:round;stroke-linejoin:round;stroke-miterlimit:10;" d="
		M402.3,319.8c0.3,16.3-1.6,48.9,11.9,89.3"/>
	<path style="fill:none;stroke:#000000;stroke-width:3;stroke-linecap:round;stroke-linejoin:round;stroke-miterlimit:10;" d="
		M355.6,312.2c0,0-3.6,26.5-2.5,43s5.8,45.5,5.8,45.5"/>
	<path style="fill:#EF9AEF;stroke:#000000;stroke-miterlimit:10;" d="M391.8,419.2c0.3,3.7,7.8,6.2,16.9,5.6s16.2-4.2,15.9-7.9
		c-0.2-2.8-4.5-7.2-10.4-7.8c-2-0.2-4.2,2-6.4,2.2C398.7,411.9,391.6,415.5,391.8,419.2z"/>
	<path style="fill:#EF9AEF;stroke:#000000;stroke-miterlimit:10;" d="M335.5,411c0.3,3.7,7.8,6.2,16.9,5.6
		c9.1-0.6,16.2-4.2,15.9-7.9c-0.2-2.6-4-7.2-9.4-8c-2.3-0.3-4.8,2.2-7.5,2.4C342.3,403.8,335.2,407.3,335.5,411z"/>
	
		<rect x="351.9" y="143.6" transform="matrix(-1 4.492838e-11 -4.492838e-11 -1 760.0755 334.7653)" style="fill:#E2D0AA;stroke:#000000;stroke-linecap:round;stroke-linejoin:round;stroke-miterlimit:10;" width="56.4" height="47.5"/>
	<path style="fill:#7EC3CE;stroke:#000000;stroke-linecap:round;stroke-linejoin:round;stroke-miterlimit:10;" d="M434.3,258.3
		l-8.5,58.2c0,0-6,3.3-23.6,3.3s-27.3-6.1-27.3-6.1s-1.1-5.9-2.3-11c-1.2-5.4-6.4-6.4-6.4-6.4s6.5,2.5,7.1,10.8
		c0.1,1.7,0,1.7-1.7,2.5c-5.1,2.5-17.2,2.8-20.9,2.2c-5-0.9-9.6-4.4-9.6-4.4l3.7-22.4"/>
	<path style="fill:#C13D1A;stroke:#000000;stroke-linecap:round;stroke-linejoin:round;stroke-miterlimit:10;" d="M342.4,143.6
		c0,0-29.2,32.5-30.1,36.6s4.4,5.2,9.5,10.9c5.1,5.7,10.8,6.4,13.6,5.8c2.8-0.6,6.2-8.5,6.2-8.5l13.9-39.4L342.4,143.6z"/>
	<path style="fill:#DD7F62;stroke:#000000;stroke-linecap:round;stroke-linejoin:round;stroke-miterlimit:10;" d="M402.4,147.9
		c0,0,6.6,14.5,11.5,21c4.9,6.5,9.6,14.4,9.6,14.4s3.2,24.2,8,40.6c4.8,16.4,13.8,39,13.8,39s-14.8,23.3-59.3,25.3
		s-45.9-7.1-45.9-7.1s-5.9-76.8-5.1-88.1c0.7-11.3,1.6-31.9,6.1-44.1l13.3-1.1c0,0-4.4,26,20.4,23.9s14.3-26.8,14.3-26.8
		L402.4,147.9z"/>
	<path style="fill:none;stroke:#000000;stroke-width:3;stroke-linecap:round;stroke-linejoin:round;stroke-miterlimit:10;" d="
		M435.3,185.4c9.8,47.7,17.1,33.3-56.7,66.5"/>
	<path style="fill:#EFDDB9;stroke:#000000;stroke-linecap:round;stroke-linejoin:round;stroke-miterlimit:10;" d="M378.6,251.9
		c-1.4-3.6-4.4-5.5-9.5-6.2c-2.4-0.3-5.1-0.5-8.4,1c-4.6,2.1-4,4.9-2,4.6c2.3-0.4,7.8-2.7,8.7-0.7s-1.5,2.5-3.8,4.6
		s-12,1.9-10.3,5.5c1.7,3.6,8.8-0.1,11.7-1.3c0,0-10,9.8-6.5,10.7c3.5,1,7.9-5.3,10.8-7.1c0,0-5.8,5.9-3.9,7.7
		c1.6,1.6,4.9-2.3,8.5-5.4C378.7,260.8,380.1,255.9,378.6,251.9z"/>
	<path style="fill:#C13D1A;stroke:#000000;stroke-linecap:round;stroke-linejoin:round;stroke-miterlimit:10;" d="M423.6,144.4
		c0,0,21.4,23.9,21.4,28.1c0,4.2-3.6,8.4-9.8,12.9s-10.7,8.1-13.3,7c-2.6-1.1-6-8.1-6-8.1l-13.1-36.5
		C408.9,143.9,414.2,134.7,423.6,144.4z"/>
	<g>
		
			<ellipse transform="matrix(0.9841 -0.1774 0.1774 0.9841 -9.4421 66.6108)" style="fill:#EFDDB9;stroke:#000000;stroke-linecap:round;stroke-linejoin:round;stroke-miterlimit:10;" cx="367.8" cy="86.1" rx="78.1" ry="72.9"/>
		<path style="fill:#EFDDB9;stroke:#000000;stroke-linecap:round;stroke-linejoin:round;stroke-miterlimit:10;" d="M441,77.6
			c0,0,1-4,8-4.7c6.9-0.7,6.5,6.6,5.1,9.5s-3.7,9.8-7.6,9.9s-5-1.5-5-1.5"/>
		<ellipse transform="matrix(0.9841 -0.1774 0.1774 0.9841 -8.5519 68.2975)" cx="377.7" cy="82" rx="3.1" ry="5.2"/>
		<ellipse transform="matrix(0.9841 -0.1774 0.1774 0.9841 -9.6821 57.1806)" cx="314.9" cy="82.7" rx="3.1" ry="5.2"/>
		<path style="fill:none;stroke:#000000;stroke-linecap:round;stroke-linejoin:round;stroke-miterlimit:10;" d="M376.7,124.5
			c-3.3,5.6-9.5,10.9-21.1,13c-30,5.4-35.3-19.8-35.3-19.8"/>
		<path style="fill:none;stroke:#000000;stroke-linecap:round;stroke-linejoin:round;stroke-miterlimit:10;" d="M321.4,115.3
			c0,0-0.1,2.8-2.8,3"/>
		<path style="fill:none;stroke:#000000;stroke-linecap:round;stroke-linejoin:round;stroke-miterlimit:10;" d="M379.6,125
			c0,0-3.6,1.1-3.3-2.8"/>
		<path style="fill:#8E6F86;stroke:#000000;stroke-width:1.2403;stroke-miterlimit:10;" d="M305.9,20.3l1.1,6.4l-6.9,1.2
			c0,0-6,3.2-5.4,8.4c0.6,5.2,1.9,12.4,13.2,10.7c11.3-1.7,13.6,0.5,26.6-4.8s16.3-8.3,16.3-8.3s-7.8,10.4-12.8,11.6
			c-5,1.2,26.4,3,36.8,1.1s18.6-2.8,23-8.1c0,0,1.5,7,3.6,8.7c2.2,1.7,18.6,6.3,25.3,10.2s16.8,12.6,16.8,12.6s-1.4-18.2-9.9-31.9
			c-8.5-13.7-22.3-16.4-22.3-16.4s0.6-6.5,8.5-4.6c0,0-8-3.1-13,0.6c0,0-5.9-7.6-15.6-12.9c0,0,5.5,7.8,5.8,13.3
			c0,0-15.8-18.7-38.7-14.4c-22.9,4.3-24.6,8.2-33.8,10.8S305.9,20.3,305.9,20.3z"/>
	</g>
	<path style="fill:none;stroke:#000000;stroke-width:3;stroke-linecap:round;stroke-linejoin:round;stroke-miterlimit:10;" d="
		M192.2,360.7c0,0,37.7-9.1,41.7,0c4,9.1-19.8,47.2-19.8,47.2"/>
	<path style="fill:none;stroke:#000000;stroke-width:3;stroke-linecap:round;stroke-linejoin:round;stroke-miterlimit:10;" d="
		M178.9,381.5c0,0,26.9-10.3,43.8-4.7c16.9,5.7,36.4,38.2,36.4,38.2"/>
	<path style="fill:none;stroke:#000000;stroke-width:3;stroke-linecap:round;stroke-linejoin:round;stroke-miterlimit:10;" d="
		M173.9,264.8c28.6,15.7,27.9,29.4,79.3-6.7"/>
	<path style="fill:#D56C3C;stroke:#000000;stroke-linecap:round;stroke-linejoin:round;stroke-miterlimit:10;" d="M191.4,368.9
		c0,0,15.1-15.6,9.2-16c-5.8-0.4-21.2,5.2-30.6,4.6s-5.9,9.1-5.9,9.1l-0.6,1.7l14.9,5.4L191.4,368.9z"/>
	<path style="fill:#D56C3C;stroke:#000000;stroke-linecap:round;stroke-linejoin:round;stroke-miterlimit:10;" d="M82.8,381.3
		c0,0-3.7,16.6,9.7,26.1s24.9,8.9,47,6.9s37.2-2.9,37.2-2.9s0.1-16,6.4-25.6c6.3-9.6,12-14.2,11.5-16.2c-0.6-2-8.3,1.1-24.8,0
		c-16.5-1.1-49.4-8.8-49.4-8.8L82.8,381.3z"/>
	
		<rect x="81.5" y="238.6" transform="matrix(0.9788 -0.2049 0.2049 0.9788 -51.4542 28.0426)" style="fill:#EFCFAC;stroke:#000000;stroke-linecap:round;stroke-linejoin:round;stroke-miterlimit:10;" width="56.4" height="47.5"/>
	<path style="fill:#4885BB;stroke:#000000;stroke-linecap:round;stroke-linejoin:round;stroke-miterlimit:10;" d="M136,235.7
		c0,0,40.6,16.2,43.2,19.5c2.6,3.3-1.6,6.6-3.7,14c-2.1,7.4-6.9,10.5-9.7,11.3c-2.8,0.7-9.3-4.9-9.3-4.9l-30-29.2L136,235.7z"/>
	<path style="fill:#A39F47;stroke:#000000;stroke-linecap:round;stroke-linejoin:round;stroke-miterlimit:10;" d="M78.7,252.5
		l-10.2,2.1c0,0,4.1,62.1,4.3,79.2c0.1,17.1-2,41.4-2,41.4s20.9,18.1,64.1,7.1c43.2-10.9,41.9-20.1,41.9-20.1s-16.5-75.3-20.5-85.9
		c-3.9-10.6-10.8-30.1-18.5-40.4l-13,2.7c0,0,11.7,23.6-12.7,28.7c-24.4,5.1-21.4-21.6-21.4-21.6L78.7,252.5z"/>
	
		<ellipse transform="matrix(0.7212 -0.6928 0.6928 0.7212 -99.7978 116.0295)" style="fill:#EFCFAC;stroke:#000000;stroke-linecap:round;stroke-linejoin:round;stroke-miterlimit:10;" cx="94.2" cy="182" rx="78.1" ry="72.9"/>
	<path style="fill:#EFCFAC;stroke:#000000;stroke-linecap:round;stroke-linejoin:round;stroke-miterlimit:10;" d="M44.4,236.3
		c0,0-3.8-1.5-8.4,3.7c-4.6,5.2,1.6,9.1,4.7,9.7c3.2,0.6,10.1,2.8,12.5-0.4c2.4-3.1,1.7-4.9,1.7-4.9"/>
	<ellipse transform="matrix(0.7212 -0.6928 0.6928 0.7212 -106.2074 111.2477)" cx="85.1" cy="187.6" rx="3.1" ry="5.2"/>
	<ellipse transform="matrix(0.7212 -0.6928 0.6928 0.7212 -60.8881 123.1399)" cx="122.5" cy="137.2" rx="3.1" ry="5.2"/>
	<path style="fill:#853624;stroke:#000000;stroke-linecap:round;stroke-linejoin:round;stroke-miterlimit:10;" d="M31.2,229.2
		c0,0-2.5-8.7,2.7-20.8s13.5-24.4,10.2-39.1c-3.3-14.7-2.4-17.2-2.4-17.2s14-1,24-5.2c10-4.2,21.4-14.1,21.4-14.1
		s-10.4,6.1-18.1,2.7c0,0,18.8-5,31.9-18.5s8.9-15.3,13.6-18.8c0,0-3.1,1.4-3.7-0.7c-0.6-2.1,4.1-7.3-1-13.2L95.7,96.4
		c0,0,3-8-2.6-14.3c0,0-10.3,14.1-27.9,21.8S37.7,119.6,30,133.1s-5.6,23.6-3.5,26.2c0,0-7.3-8.4-6.5-13.9c0,0-2.5,12.4-1.2,19.4
		c0,0-10.2,3.1-11.4,13.2c0,0,6.7-5.2,8.2-4c0,0-3.3,12.6-0.3,29.4S31.2,229.2,31.2,229.2z"/>
	<path style="fill:#4885BB;stroke:#000000;stroke-linecap:round;stroke-linejoin:round;stroke-miterlimit:10;" d="M55.6,268.3
		c-4.9,15.2-10.3,30.3-8.7,34.2c1.6,3.9,6.6,6.3,14.1,8.1c7.5,1.8,13,3.3,15,1.2c2-2.1,2.4-9.8,2.4-9.8s0.5-26.7-2.2-38.7
		C73.3,251.2,60.4,253,55.6,268.3z"/>
	<path style="fill:none;stroke:#000000;stroke-width:3;stroke-linecap:round;stroke-linejoin:round;stroke-miterlimit:10;" d="
		M54.3,308.5c-4,10.8-18.9,92.8-18.9,92.8"/>
	<path style="fill:#356488;stroke:#000000;stroke-miterlimit:10;" d="M231,427.3c-1.9,3.2-9.8,1.9-17.5-2.8
		c-7.7-4.7-12.5-11.1-10.5-14.3c1.5-2.4,7.3-4.3,12.8-2.1c1.9,0.7,2.8,3.7,4.7,4.9C228.3,417.7,233,424.1,231,427.3z"/>
	<path style="fill:#356488;stroke:#000000;stroke-miterlimit:10;" d="M283,408.2c2.1,3.1-2.4,9.7-9.9,14.8s-15.3,6.7-17.4,3.6
		c-1.5-2.2-1.3-8.2,2.5-12.1c1.6-1.6,5.1-1.2,7.4-2.7C273.2,406.8,281,405.2,283,408.2z"/>
	<path style="fill:#EECFAC;stroke:#000000;stroke-linecap:round;stroke-linejoin:round;stroke-miterlimit:10;" d="M35.3,401.3
		c5.3-1.4,10.9,6.1,10.9,8s-5.8,1.5-9.4,1.6c0,0-4.7,8.1-6.6,9c-1.7,0.8-10.2,1.5-10.2-0.7S23,404.7,35.3,401.3z"/>
	<g>
		<path style="fill:#EECFAC;stroke:#000000;stroke-linecap:round;stroke-linejoin:round;stroke-miterlimit:10;" d="M255,261.4
			c0.6,0.6,1.8,1.2,3.4,1.7c5.9,1.8,16.8,2.1,18.4-0.9c2-3.9,1.3-11.6-2.4-14c-3.7-2.4-16.4,2.3-19.3,4.2
			C252.3,254.3,252.4,258.4,255,261.4z"/>
		<path style="fill:#EFDDB9;stroke:#000000;stroke-linecap:round;stroke-linejoin:round;stroke-miterlimit:10;" d="M273.7,259.4
			c-1.7-1.6-8.8-2-10.7-1.2c-1.9,0.8-1.5,3.2-2.8,3.9c-1.3,0.7-1.8,1.1-1.8,1.1s0.2,2.3,3.5,3c3.3,0.8,10.3,0.4,11.5-1
			C274.5,263.8,275.4,261,273.7,259.4z"/>
		<g>
			<path style="fill:#EFDDB9;stroke:#000000;stroke-linecap:round;stroke-linejoin:round;stroke-miterlimit:10;" d="M265.7,249.5
				c0.1-1.5,0.9-0.9,2.5-1.6c2.6-0.4,4.9-0.5,6.2,0.4c1.2,0.8,2,2.1,2.6,3.6c0.3-2.8,0.4-5.3,0.2-6.5c-0.4-3.4-4.2-5.1-8-4.1
				c-0.1,0-0.2,0.1-0.3,0.1l0,0c0,0,0,0,0,0c0,0-0.1,0-0.1,0c-4.8,2.2-7.6,4.9-8,6.1c-0.6,2,0.3,5.9,1.2,6.2c0.9,0.3,3.1,1.1,3.5-1
				C265.9,251.1,265.6,251.4,265.7,249.5z"/>
		</g>
	</g>
	<path style="fill:none;stroke:#000000;stroke-linecap:round;stroke-linejoin:round;stroke-miterlimit:10;" d="M131.3,206.8
		c13.8-2,22.1-11.8,24-27.4"/>
</g>
</svg>
