<?xml version="1.0" encoding="utf-8"?>
<!-- Generator: Adobe Illustrator 27.9.4, SVG Export Plug-In . SVG Version: 9.03 Build 54784)  -->
<svg version="1.1" xmlns="http://www.w3.org/2000/svg" xmlns:xlink="http://www.w3.org/1999/xlink" x="0px" y="0px"
	 viewBox="0 0 210.9 430.9" style="enable-background:new 0 0 210.9 430.9;" xml:space="preserve">
<g id="Layer_2">
</g>
<g id="svg">
	<path style="fill:none;stroke:#000000;stroke-width:3;stroke-linecap:round;stroke-linejoin:round;stroke-miterlimit:10;" d="
		M105,322.5c-0.3,16.3,1.6,48.9-11.9,89.3"/>
	<path style="fill:none;stroke:#000000;stroke-width:3;stroke-linecap:round;stroke-linejoin:round;stroke-miterlimit:10;" d="
		M151.7,314.9c0,0,3.6,26.5,2.5,43c-1.1,16.6-5.8,45.5-5.8,45.5"/>
	<path style="fill:#356488;stroke:#000000;stroke-miterlimit:10;" d="M115.5,421.8c-0.3,3.7-7.8,6.2-16.9,5.6
		c-9.1-0.6-16.2-4.2-15.9-7.9c0.2-2.8,4.5-7.2,10.4-7.8c2-0.2,4.2,2,6.4,2.2C108.6,414.6,115.7,418.1,115.5,421.8z"/>
	<path style="fill:#356488;stroke:#000000;stroke-miterlimit:10;" d="M171.8,413.6c-0.3,3.7-7.8,6.2-16.9,5.6
		c-9.1-0.6-16.2-4.2-15.9-7.9c0.2-2.6,4-7.2,9.4-8c2.3-0.3,4.8,2.2,7.5,2.4C165,406.4,172.1,409.9,171.8,413.6z"/>
	
		<rect x="99.1" y="146.2" style="fill:#EFCFAC;stroke:#000000;stroke-linecap:round;stroke-linejoin:round;stroke-miterlimit:10;" width="56.4" height="47.5"/>
	<path style="fill:#D56C3C;stroke:#000000;stroke-linecap:round;stroke-linejoin:round;stroke-miterlimit:10;" d="M75.8,280.6
		l5.6,38.6c0,0,6,3.3,23.6,3.3s27.3-6.1,27.3-6.1s1.1-5.9,2.3-11c1.2-5.4,6.4-6.4,6.4-6.4s-6.5,2.5-7.1,10.8c-0.1,1.7,0,1.7,1.7,2.5
		c5.1,2.5,17.2,2.8,20.9,2.2c5-0.9,9.6-4.4,9.6-4.4l-3.7-22.4"/>
	<path style="fill:#4885BB;stroke:#000000;stroke-linecap:round;stroke-linejoin:round;stroke-miterlimit:10;" d="M81.7,150.4
		c0,0-25.8,18.9-26.7,23.1s1.8,9,6.9,14.7c5.1,5.7,8.8,10.1,11.6,9.5s7.5-6.6,7.5-6.6l20.4-33L81.7,150.4z"/>
	<path style="fill:#4885BB;stroke:#000000;stroke-linecap:round;stroke-linejoin:round;stroke-miterlimit:10;" d="M164.9,146.2
		c0,0,29.2,32.5,30.1,36.6c0.9,4.1-4.4,5.2-9.5,10.9s-10.8,6.4-13.6,5.8c-2.8-0.6-6.2-8.5-6.2-8.5l-13.9-39.4L164.9,146.2z"/>
	<path style="fill:#A39F47;stroke:#000000;stroke-linecap:round;stroke-linejoin:round;stroke-miterlimit:10;" d="M99,153.9
		c0,0-5.4,15-9.7,22S81,191.1,81,191.1s-1.1,24.4-4.5,41.1s-10.4,40.1-10.4,40.1s16.7,22,61.2,20.1s45.1-11.1,45.1-11.1
		s-0.8-77.1-2.5-88.3c-1.7-11.2-4.4-31.7-9.9-43.4h-13.3c0,0,6.6,25.5-18.3,25.5S112,149.7,112,149.7L99,153.9z"/>
	
		<ellipse style="fill:#EFCFAC;stroke:#000000;stroke-linecap:round;stroke-linejoin:round;stroke-miterlimit:10;" cx="121.1" cy="86.6" rx="78.1" ry="72.9"/>
	<path style="fill:#EFCFAC;stroke:#000000;stroke-linecap:round;stroke-linejoin:round;stroke-miterlimit:10;" d="M47.5,91.2
		c0,0-1.7-3.8-8.7-3.2c-6.9,0.6-5.2,7.6-3.3,10.2s5.3,8.9,9.2,8.4c3.9-0.6,4.6-2.3,4.6-2.3"/>
	<ellipse cx="110.6" cy="84.2" rx="3.1" ry="5.2"/>
	<ellipse cx="172.5" cy="73.9" rx="3.1" ry="5.2"/>
	<path style="fill:none;stroke:#000000;stroke-linecap:round;stroke-linejoin:round;stroke-miterlimit:10;" d="M105.7,121.3
		c5.6,7.3,14.9,13.3,30.6,13.3c40.3,0,42.3-38,42.3-38"/>
	<path style="fill:none;stroke:#000000;stroke-linecap:round;stroke-linejoin:round;stroke-miterlimit:10;" d="M175.6,93.5
		c0,0,0.8,4,4.4,3.6"/>
	<path style="fill:none;stroke:#000000;stroke-linecap:round;stroke-linejoin:round;stroke-miterlimit:10;" d="M102,122.7
		c0,0,4.9,0.7,3.7-4.9"/>
	<path style="fill:none;stroke:#000000;stroke-linecap:round;stroke-linejoin:round;stroke-miterlimit:10;" d="M146.6,139
		c2.8,0.5,6.4-2.6,6.4-2.6"/>
	<path style="fill:#853624;stroke:#000000;stroke-linecap:round;stroke-linejoin:round;stroke-miterlimit:10;" d="M43,76.9
		c0,0,4.3-8,16.4-13.1S86,55.6,93.8,42.7S104,28.6,104,28.6s10.8,8.9,20.9,12.8s25.2,4.7,25.2,4.7s-11.7-2.8-15-10.6
		c0,0,17,9.5,35.8,8.7s17-4.9,22.8-4.2c0,0-3.2-1.1-2.2-3.1c1-2,8.1-2.4,8.4-10.3l-18.6-1c0,0,7.7-3.7,8.1-12.1c0,0-17.2,3-35.2-3.6
		s-30.9-7.7-45.8-3.3S88.2,20,87.9,23.3c0,0,0.6-11.1,5-14.5c0,0-10.4,7.2-14.3,13.2c0,0-9.5-4.9-17.3,1.6c0,0,8.4,0.9,8.7,2.8
		c0,0-11.1,6.8-20.6,21S43,76.9,43,76.9z"/>
	<path style="fill:none;stroke:#000000;stroke-width:3;stroke-linecap:round;stroke-linejoin:round;stroke-miterlimit:10;" d="
		M57.6,182.7c-9.5,6.5-30.7,28.2-38.5,26.5S3.3,173.7,4.2,171.1"/>
	<path style="fill:none;stroke:#000000;stroke-width:3;stroke-linecap:round;stroke-linejoin:round;stroke-miterlimit:10;" d="
		M185.5,193.8c8.1,11.2,9.9,7.1,7.8,63.8"/>
	<path style="fill:#EECFAC;stroke:#000000;stroke-linecap:round;stroke-linejoin:round;stroke-miterlimit:10;" d="M27.5,150.4
		c0.1,1.8,5,5.3,7.3,7.2c2.3,1.9,5.4,6.3,3.5,7.9c-2,1.6-6.6,0.3-8.1-2.7c-1.5-3-2.2-2.8-2.2-2.8s4,8.4,0.5,10.1
		c-3.6,1.7-7.6-3.8-8.3-4.7c-0.7-0.9,2.7,6.5-0.6,7.7c-3.3,1.2-6.2-0.3-6.5-2.7c-0.3-2.4-3.1,2.9-6,1.8s-5.5-2-5.1-7.2
		c0.4-5.2,0.1-4.9,9.4-13.3c9.3-8.4,24.8-18.2,27.6-15C41.6,139.9,27.5,150.4,27.5,150.4z"/>
	<path style="fill:#EECFAC;stroke:#000000;stroke-linecap:round;stroke-linejoin:round;stroke-miterlimit:10;" d="M193.3,257.6
		c-3.8,0.3-6.6,2.6-8.7,7.3c-1,2.2-2,4.7-1.6,8.3c0.6,5.1,3.5,5.3,3.8,3.3c0.3-2.3-0.2-8.2,1.9-8.5c2.2-0.3,1.9,2.2,3.2,5
		c1.3,2.8-1.8,12,2.2,11.5s2.6-8.4,2.2-11.5c0,0,6.3,12.5,8.3,9.4c2-3-2.7-9.1-3.6-12.4c0,0,3.8,7.3,6.2,6.1c2-1.1-0.7-5.4-2.7-9.7
		C201.8,260.1,197.6,257.3,193.3,257.6z"/>
</g>
</svg>
