<?xml version="1.0" encoding="utf-8"?>
<!-- Generator: Adobe Illustrator 27.9.4, SVG Export Plug-In . SVG Version: 9.03 Build 54784)  -->
<svg version="1.1" xmlns="http://www.w3.org/2000/svg" xmlns:xlink="http://www.w3.org/1999/xlink" x="0px" y="0px"
	 viewBox="0 0 386.5 430.9" style="enable-background:new 0 0 386.5 430.9;" xml:space="preserve">
<g id="Layer_2">
</g>
<g id="svg">
	<g>
		<path style="fill:#4885BB;stroke:#000000;stroke-linecap:round;stroke-linejoin:round;stroke-miterlimit:10;" d="M41.8,380.9
			L41.8,380.9c-16.1,0-29.2-13.1-29.2-29.2V189.8c0-16.1,13.1-29.2,29.2-29.2h0c16.1,0,29.2,13.1,29.2,29.2v161.9
			C71,367.8,57.9,380.9,41.8,380.9z"/>
		<path style="fill:#EFCFAC;stroke:#000000;stroke-linecap:round;stroke-linejoin:round;stroke-miterlimit:10;" d="M182.1,393.4
			c-73.9,0-111.1-40.8-111.1-40.8v-167c0,0,45.8-49.2,72.8-51.1c27.1-1.9,119.1,48,119.1,48v191.7l8.8,19.3L182.1,393.4z"/>
		<path style="fill:#EFCFAC;stroke:#000000;stroke-linecap:round;stroke-linejoin:round;stroke-miterlimit:10;" d="M145.2,270.1
			c0,0,12,6,53.7-17s30.6-58.1,34.3-69.1s13.4-22.9,24.1-35.5c10.8-12.6,21-29,21-60.2s-27.9-51.5-42-51.5s-18,8.8-17.5,20.8
			c0.5,12-0.7,27.9-4,36.1s-17,25.2-32.6,31.8s-45.7,5.5-67.6,22.5"/>
		<path style="fill:#EFCFAC;stroke:#000000;stroke-linecap:round;stroke-linejoin:round;stroke-miterlimit:10;" d="M349.9,364.6v1
			c0,15.7-12.7,28.4-28.4,28.4h-52.3c-15.7,0-28.4-12.7-28.4-28.4v-1c0-15.7,12.7-28.4,28.4-28.4h52.3
			C337.2,336.2,349.9,348.9,349.9,364.6z"/>
		<path style="fill:#EFCFAC;stroke:#000000;stroke-linecap:round;stroke-linejoin:round;stroke-miterlimit:10;" d="M366.3,306.8v1
			c0,15.7-12.7,28.4-28.4,28.4H272c-15.7,0-28.4-12.7-28.4-28.4v-1c0-15.7,12.7-28.4,28.4-28.4h65.9
			C353.6,278.4,366.3,291.1,366.3,306.8z"/>
		<path style="fill:#EFCFAC;stroke:#000000;stroke-linecap:round;stroke-linejoin:round;stroke-miterlimit:10;" d="M373.9,248.9v1
			c0,15.7-12.7,28.4-28.4,28.4h-76.3c-15.7,0-28.4-12.7-28.4-28.4v-1c0-15.7,12.7-28.4,28.4-28.4h76.3
			C361.2,220.5,373.9,233.2,373.9,248.9z"/>
		<path style="fill:#EFCFAC;stroke:#000000;stroke-linecap:round;stroke-linejoin:round;stroke-miterlimit:10;" d="M373.9,191v1
			c0,15.7-12.7,28.4-28.4,28.4h-84c-15.7,0-28.4-12.7-28.4-28.4v-1c0-15.7,12.7-28.4,28.4-28.4h84
			C361.2,162.6,373.9,175.4,373.9,191z"/>
	</g>
</g>
</svg>
