<?xml version="1.0" encoding="utf-8"?>
<!-- Generator: Adobe Illustrator 27.9.4, SVG Export Plug-In . SVG Version: 9.03 Build 54784)  -->
<svg version="1.1" xmlns="http://www.w3.org/2000/svg" xmlns:xlink="http://www.w3.org/1999/xlink" x="0px" y="0px"
	 viewBox="0 0 283.2 430.9" style="enable-background:new 0 0 283.2 430.9;" xml:space="preserve">
<g id="Layer_2">
</g>
<g id="svg">
	<path style="fill:#DDD8CC;stroke:#000000;stroke-width:1.0832;stroke-miterlimit:10;" d="M146,110.1c46.7-4.2,74.5-31.7,68-39.6
		s-53.2-58.3-74.1-57.2s-72.5,66-61.3,74S99.3,114.2,146,110.1z"/>
	<path style="fill:#DDD8CC;stroke:#000000;stroke-width:1.0832;stroke-miterlimit:10;" d="M151.4,419
		c76.8-2.8,103.3-47.2,114.7-66.8c11.4-19.5-85-99.8-120.3-97.9S2.6,355,28.8,374.9C55,394.9,72.4,421.9,151.4,419z"/>
	<polygon points="145.9,224.2 176.2,195.1 156.1,196.9 163.9,148.3 145.9,148.2 127.9,148.3 135.7,196.9 115.7,195.1 	"/>
</g>
</svg>
