<?xml version="1.0" encoding="utf-8"?>
<!-- Generator: Adobe Illustrator 27.9.4, SVG Export Plug-In . SVG Version: 9.03 Build 54784)  -->
<svg version="1.1" xmlns="http://www.w3.org/2000/svg" xmlns:xlink="http://www.w3.org/1999/xlink" x="0px" y="0px"
	 viewBox="0 0 302.7 430.9" style="enable-background:new 0 0 302.7 430.9;" xml:space="preserve">
<g id="Layer_2">
</g>
<g id="svg">
	<path style="fill:none;stroke:#000000;stroke-width:3;stroke-linecap:round;stroke-linejoin:round;stroke-miterlimit:10;" d="
		M98.9,181.2c-12.9,10.3-18,14.2-64.2-3.2"/>
	<path style="fill:none;stroke:#000000;stroke-width:3;stroke-linecap:round;stroke-linejoin:round;stroke-miterlimit:10;" d="
		M227.9,137.8c28.4-13.8,28.6-12.9,45.3-45.6"/>
	<path style="fill:#EECFAC;stroke:#000000;stroke-linecap:round;stroke-linejoin:round;stroke-miterlimit:10;" d="M35.2,178.9
		c1.3-3.6,0.4-7-3-11c-1.6-1.8-3.5-3.8-6.9-4.8c-4.9-1.5-6.2,1-4.5,2.1c1.9,1.3,7.6,3.2,7,5.3c-0.6,2.1-2.8,0.9-5.9,0.9
		c-3.1,0-10.2-6.6-11.3-2.8s6.6,5.8,9.6,6.8c0,0-14,0.6-12,3.6s9.4,1.3,12.8,1.9c0,0-8.3,0.5-8.1,3.1c0.2,2.3,5.2,1.6,9.9,1.6
		C29.3,185.5,33.7,182.9,35.2,178.9z"/>
	<path style="fill:#EECFAC;stroke:#000000;stroke-linecap:round;stroke-linejoin:round;stroke-miterlimit:10;" d="M275.4,97.9
		c-3.8-0.5-6.3-3.1-8.2-7.9c-0.9-2.2-1.6-4.8-1-8.4c1-5,3.8-5,4-3c0.2,2.3-0.8,8.2,1.3,8.7c2.1,0.5,2.1-2,3.6-4.7s-0.9-12.1,3-11.3
		s1.9,8.5,1.4,11.7c0,0,7.2-12,8.9-8.8c1.7,3.2-3.3,8.9-4.5,12.2c0,0,4.4-7,6.6-5.6c1.9,1.2-1.1,5.3-3.4,9.5
		C284.1,95.9,279.7,98.5,275.4,97.9z"/>
	<path style="fill:#F5C74F;stroke:#0A0606;stroke-width:1.9171;stroke-miterlimit:10;" d="M184.4,344.6
		c-32.6,14.1-60.7,28.6-78.1,29.7s-29.9,6.5-29.9,15.1c0,8.6,7,16.7,10.6,20.1s12.6,14,27.2,10.9c14.6-3.1,26-9.4,45-16.4
		s108.8-50.2,111.9-68.5c3.1-18.2-2.8-18.5-10.3-24.2c-7.6-5.7-18.5-4.9-23.5,4.4S206.4,335.1,184.4,344.6z"/>
	
		<ellipse transform="matrix(0.6365 -0.7713 0.7713 0.6365 -270.5804 256.9274)" style="fill:#D56C3C;stroke:#000000;stroke-width:1.9171;stroke-linecap:round;stroke-linejoin:round;stroke-miterlimit:10;" cx="137.3" cy="415.5" rx="11.8" ry="9.7"/>
	
		<ellipse transform="matrix(0.6365 -0.7713 0.7713 0.6365 -182.9403 325.3482)" style="fill:#D56C3C;stroke:#000000;stroke-width:1.9171;stroke-linecap:round;stroke-linejoin:round;stroke-miterlimit:10;" cx="253.7" cy="356.7" rx="11.8" ry="9.7"/>
	<path style="fill:none;stroke:#000000;stroke-width:3;stroke-linecap:round;stroke-linejoin:round;stroke-miterlimit:10;" d="
		M162.5,303.2c10,47.5,2.8,32.3-17,78.5"/>
	<path style="fill:none;stroke:#000000;stroke-width:3;stroke-linecap:round;stroke-linejoin:round;stroke-miterlimit:10;" d="
		M208.6,292.2c0,0,18.9,23.2,18.9,28.3s-22.8,23.1-24.5,30.6"/>
	
		<rect x="129.3" y="146.4" style="fill:#EFCFAC;stroke:#000000;stroke-linecap:round;stroke-linejoin:round;stroke-miterlimit:10;" width="56.4" height="47.5"/>
	<path style="fill:#D56C3C;stroke:#000000;stroke-linecap:round;stroke-linejoin:round;stroke-miterlimit:10;" d="M122.3,260.1
		l5.6,40.6c0,0,6,3.3,23.6,3.3s27.3-8.1,27.3-8.1s1.1-5.9,2.3-11c1.2-5.4,6.4-6.4,6.4-6.4s-6.5,2.5-7.1,10.8c-0.1,1.7,0,1.7,1.7,2.5
		c5.1,2.5,17.2,2.8,20.9,2.2c5-0.9,9.6-4.4,9.6-4.4l-3.7-22.4"/>
	<path style="fill:#4885BB;stroke:#000000;stroke-linecap:round;stroke-linejoin:round;stroke-miterlimit:10;" d="M181.1,152.1
		c0,0,36.4-24.2,40.6-24.5c4.2-0.3,4.5,5.1,9.4,11c4.9,5.9,4.8,11.7,3.8,14.3s-9.3,4.9-9.3,4.9l-41,8.1L181.1,152.1z"/>
	<path style="fill:#A39F47;stroke:#000000;stroke-linecap:round;stroke-linejoin:round;stroke-miterlimit:10;" d="M129.2,154.1
		c0,0-5.4,15-9.7,22c-4.3,6.9-8.3,15.2-8.3,15.2s5,16,1.6,32.7c-3.4,16.7-0.2,27.9-0.2,27.9s16.7,22,61.2,20.1s45.1-11.1,45.1-11.1
		s-12.6-28.7-16-47.8s-7.1-51.5-12.6-63.2h-13.3c0,0,6.6,25.5-18.3,25.5s-16.6-25.5-16.6-25.5L129.2,154.1z"/>
	<path style="fill:#4885BB;stroke:#000000;stroke-linecap:round;stroke-linejoin:round;stroke-miterlimit:10;" d="M119,150.1
		c0,0-28.6,14.5-30.1,18.4c-1.5,3.9,0.3,9.1,4.4,15.6c4.1,6.5,7,11.4,9.9,11.3c2.8-0.1,8.5-5.3,8.5-5.3l25.5-36.2L119,150.1z"/>
	
		<ellipse style="fill:#EFCFAC;stroke:#000000;stroke-linecap:round;stroke-linejoin:round;stroke-miterlimit:10;" cx="151.3" cy="86.7" rx="78.1" ry="72.9"/>
	<path style="fill:#EFCFAC;stroke:#000000;stroke-linecap:round;stroke-linejoin:round;stroke-miterlimit:10;" d="M77.7,91.4
		c0,0-1.7-3.8-8.7-3.2s-5.2,7.6-3.3,10.2c1.9,2.6,5.3,8.9,9.2,8.4c3.9-0.6,4.6-2.3,4.6-2.3"/>
	<ellipse cx="140.8" cy="84.4" rx="3.1" ry="5.2"/>
	<ellipse cx="202.7" cy="74" rx="3.1" ry="5.2"/>
	<path style="fill:none;stroke:#000000;stroke-linecap:round;stroke-linejoin:round;stroke-miterlimit:10;" d="M135.9,121.4
		c5.6,7.3,14.9,13.3,30.6,13.3c40.3,0,42.3-38,42.3-38"/>
	<path style="fill:none;stroke:#000000;stroke-linecap:round;stroke-linejoin:round;stroke-miterlimit:10;" d="M205.8,93.7
		c0,0,0.8,4,4.4,3.6"/>
	<path style="fill:none;stroke:#000000;stroke-linecap:round;stroke-linejoin:round;stroke-miterlimit:10;" d="M132.2,122.9
		c0,0,4.9,0.7,3.7-4.9"/>
	<path style="fill:none;stroke:#000000;stroke-linecap:round;stroke-linejoin:round;stroke-miterlimit:10;" d="M176.7,139.2
		c2.8,0.5,6.4-2.6,6.4-2.6"/>
	<path style="fill:#853624;stroke:#000000;stroke-linecap:round;stroke-linejoin:round;stroke-miterlimit:10;" d="M73.1,77.1
		c0,0,4.3-8,16.4-13.1s26.6-8.2,34.4-21.1s10.2-14.1,10.2-14.1s10.8,8.9,20.9,12.8s25.2,4.7,25.2,4.7s-11.7-2.8-15-10.6
		c0,0,17,9.5,35.8,8.7c18.8-0.7,17-4.9,22.8-4.2c0,0-3.2-1.1-2.2-3.1c1-2,8.1-2.4,8.4-10.3l-18.6-1c0,0,7.7-3.7,8.1-12.1
		c0,0-17.2,3-35.2-3.6S153.6,2.6,138.8,7c-14.9,4.4-20.4,13.2-20.6,16.5c0,0,0.6-11.1,5-14.5c0,0-10.4,7.2-14.3,13.2
		c0,0-9.5-4.9-17.3,1.6c0,0,8.4,0.9,8.7,2.8c0,0-11.1,6.8-20.6,21S73.1,77.1,73.1,77.1z"/>
	<path style="fill:#356488;stroke:#000000;stroke-width:1.0082;stroke-miterlimit:10;" d="M223.5,366.5c-1.1,3.6-9.1,4.3-17.8,1.7
		s-14.9-7.8-13.8-11.4c0.8-2.5,5.6-6.2,11-5.7c2.3,0.2,4.2,3.3,6.8,4C218.5,357.8,224.6,362.9,223.5,366.5z"/>
	<path style="fill:#356488;stroke:#000000;stroke-miterlimit:10;" d="M167.4,390.8c-0.3,3.7-7.8,6.2-16.9,5.6
		c-9.1-0.6-16.2-4.2-15.9-7.9c0.2-2.8,4.5-7.2,10.4-7.8c2-0.2,4.2,2,6.4,2.2C160.5,383.6,167.6,387.1,167.4,390.8z"/>
</g>
</svg>
