<?xml version="1.0" encoding="utf-8"?>
<!-- Generator: Adobe Illustrator 27.9.4, SVG Export Plug-In . SVG Version: 9.03 Build 54784)  -->
<svg version="1.1" xmlns="http://www.w3.org/2000/svg" xmlns:xlink="http://www.w3.org/1999/xlink" x="0px" y="0px"
	 viewBox="0 0 328 430.9" style="enable-background:new 0 0 328 430.9;" xml:space="preserve">
<g id="Layer_2">
</g>
<g id="svg">
	<path style="fill:none;stroke:#000000;stroke-width:3;stroke-linecap:round;stroke-linejoin:round;stroke-miterlimit:10;" d="
		M151.3,192.6c12.3,38.9,0,37.1,33.9,67.1"/>
	<path style="fill:none;stroke:#000000;stroke-width:3;stroke-linecap:round;stroke-linejoin:round;stroke-miterlimit:10;" d="
		M70.9,321.3c-0.3,16.3,1.6,48.9-11.9,89.3"/>
	<path style="fill:none;stroke:#000000;stroke-width:3;stroke-linecap:round;stroke-linejoin:round;stroke-miterlimit:10;" d="
		M117.6,313.7c0,0,3.6,26.5,2.5,43s-5.8,45.5-5.8,45.5"/>
	<path style="fill:#EF9AEF;stroke:#000000;stroke-miterlimit:10;" d="M81.3,420.6c-0.3,3.7-7.8,6.2-16.9,5.6
		c-9.1-0.6-16.2-4.2-15.9-7.9c0.2-2.8,4.5-7.2,10.4-7.8c2-0.2,4.2,2,6.4,2.2C74.5,413.4,81.6,416.9,81.3,420.6z"/>
	<path style="fill:#EF9AEF;stroke:#000000;stroke-miterlimit:10;" d="M137.7,412.4c-0.3,3.7-7.8,6.2-16.9,5.6
		c-9.1-0.6-16.2-4.2-15.9-7.9c0.2-2.6,4-7.2,9.4-8c2.3-0.3,4.8,2.2,7.5,2.4C130.8,405.2,137.9,408.7,137.7,412.4z"/>
	
		<rect x="64.9" y="145.1" style="fill:#E2D0AA;stroke:#000000;stroke-linecap:round;stroke-linejoin:round;stroke-miterlimit:10;" width="56.4" height="47.5"/>
	<path style="fill:#7EC3CE;stroke:#000000;stroke-linecap:round;stroke-linejoin:round;stroke-miterlimit:10;" d="M38.8,259.7
		l8.5,58.2c0,0,6,3.3,23.6,3.3s27.3-6.1,27.3-6.1s1.1-5.9,2.3-11c1.2-5.4,6.4-6.4,6.4-6.4s-6.5,2.5-7.1,10.8c-0.1,1.7,0,1.7,1.7,2.5
		c5.1,2.5,17.2,2.8,20.9,2.2c5-0.9,9.6-4.4,9.6-4.4l-3.7-22.4"/>
	<path style="fill:#C13D1A;stroke:#000000;stroke-linecap:round;stroke-linejoin:round;stroke-miterlimit:10;" d="M130.8,145.1
		c0,0,29.2,32.5,30.1,36.6c0.9,4.1-4.4,5.2-9.5,10.9s-10.8,6.4-13.6,5.8c-2.8-0.6-6.2-8.5-6.2-8.5l-13.9-39.4L130.8,145.1z"/>
	<path style="fill:#DD7F62;stroke:#000000;stroke-linecap:round;stroke-linejoin:round;stroke-miterlimit:10;" d="M70.8,149.4
		c0,0-6.6,14.5-11.5,21s-9.6,14.4-9.6,14.4s-3.2,24.2-8,40.6s-13.8,39-13.8,39s14.8,23.3,59.3,25.3s45.9-7.1,45.9-7.1
		s5.9-76.8,5.1-88.1c-0.7-11.3-1.6-31.9-6.1-44.1l-13.3-1.1c0,0,4.4,26-20.4,23.9s-14.3-26.8-14.3-26.8L70.8,149.4z"/>
	<path style="fill:none;stroke:#000000;stroke-width:3;stroke-linecap:round;stroke-linejoin:round;stroke-miterlimit:10;" d="
		M37.9,186.8C23,218.2,18.2,211,18.2,272.4"/>
	<path style="fill:#EFDDB9;stroke:#000000;stroke-linecap:round;stroke-linejoin:round;stroke-miterlimit:10;" d="M15.8,271.9
		c3.7-0.9,7,0.5,10.5,4.3c1.6,1.8,3.3,3.9,4,7.4c1,5-1.7,6.1-2.6,4.3c-1-2.1-2.3-7.9-4.4-7.6s-1.2,2.6-1.6,5.7
		c-0.4,3.1,5.3,10.9,1.4,11.6c-3.9,0.7-5-7.2-5.6-10.3c0,0-2.2,13.8-5,11.5s-0.2-9.5-0.4-12.9c0,0-1.5,8.1-4,7.6
		c-2.2-0.4-1-5.3-0.4-10.1C8.4,276.9,11.6,272.9,15.8,271.9z"/>
	<path style="fill:#EFDDB9;stroke:#000000;stroke-linecap:round;stroke-linejoin:round;stroke-miterlimit:10;" d="M180.3,256.7
		c-3,2.4-3.8,5.9-2.9,11c0.4,2.4,1.1,5,3.5,7.7c3.4,3.8,5.9,2.3,5,0.5c-1-2.1-4.9-6.6-3.4-8.1s2.8,0.6,5.5,2.2
		c2.7,1.6,5.5,10.8,8.4,8.1c2.9-2.7-2.8-8.3-4.8-10.7c0,0,12.4,6.5,12.2,2.9c-0.2-3.6-7.4-5.8-10.1-8.1c0,0,7.4,3.7,8.5,1.4
		c1-2.1-3.7-4-7.8-6.4C188.7,253.9,183.6,254,180.3,256.7z"/>
	<path style="fill:#C13D1A;stroke:#000000;stroke-linecap:round;stroke-linejoin:round;stroke-miterlimit:10;" d="M49.5,145.8
		c0,0-21.4,23.9-21.4,28.1c0,4.2,3.6,8.4,9.8,12.9s10.7,8.1,13.3,7c2.6-1.1,6-8.1,6-8.1l13.1-36.5C64.3,145.4,58.9,136.2,49.5,145.8
		z"/>
	
		<ellipse transform="matrix(0.1774 -0.9841 0.9841 0.1774 0.4951 175.7037)" style="fill:#EFDDB9;stroke:#000000;stroke-linecap:round;stroke-linejoin:round;stroke-miterlimit:10;" cx="105.4" cy="87.6" rx="72.9" ry="78.1"/>
	<path style="fill:#EFDDB9;stroke:#000000;stroke-linecap:round;stroke-linejoin:round;stroke-miterlimit:10;" d="M32.1,79
		c0,0-1-4-8-4.7c-6.9-0.7-6.5,6.6-5.1,9.5c1.4,2.9,3.7,9.8,7.6,9.9s5-1.5,5-1.5"/>
	<ellipse transform="matrix(0.1774 -0.9841 0.9841 0.1774 -3.5605 162.581)" cx="95.5" cy="83.4" rx="5.2" ry="3.1"/>
	<ellipse transform="matrix(0.1774 -0.9841 0.9841 0.1774 47.2966 224.9491)" cx="158.2" cy="84.2" rx="5.2" ry="3.1"/>
	<path style="fill:none;stroke:#000000;stroke-linecap:round;stroke-linejoin:round;stroke-miterlimit:10;" d="M151.6,113.1
		c0,3.4,1.8,9.4,4.8,10.8"/>
	<path style="fill:none;stroke:#000000;stroke-linecap:round;stroke-linejoin:round;stroke-miterlimit:10;" d="M94.3,131.5
		c0,0,2.9-6.9,2.6-10.8"/>
	<path style="fill:#8E6F86;stroke:#000000;stroke-width:1.2403;stroke-miterlimit:10;" d="M167.2,21.8l-1.1,6.4l6.9,1.2
		c0,0,6,3.2,5.4,8.4s-1.9,12.4-13.2,10.7s-13.6,0.5-26.6-4.8s-16.3-8.3-16.3-8.3s7.8,10.4,12.8,11.6s-26.4,3-36.8,1.1
		s-18.6-2.8-23-8.1c0,0-1.5,7-3.6,8.7c-2.2,1.7-18.6,6.3-25.3,10.2S29.5,71.5,29.5,71.5s1.4-18.2,9.9-31.9s22.3-16.4,22.3-16.4
		s-0.6-6.5-8.5-4.6c0,0,8-3.1,13,0.6c0,0,5.9-7.6,15.6-12.9c0,0-5.5,7.8-5.8,13.3c0,0,15.8-18.7,38.7-14.4s24.6,8.2,33.8,10.8
		C157.6,18.5,167.2,21.8,167.2,21.8z"/>
	<path style="fill:#C68383;stroke:#000000;stroke-linecap:round;stroke-linejoin:round;stroke-miterlimit:10;" d="M96.5,125.9
		c19.8,3.3,45.3-0.7,56.4-6.9c0,0-3.3,25.4-27.3,26.8C109.6,146.8,99.7,131.6,96.5,125.9z"/>
	<path style="fill:#FFFFFF;" d="M114.3,130.9c1,0.4,7.1,1.7,14.3,0.3c7.1-1.4,11.3-2.4,11.3-3.1c0-0.7,0-3.8,0-3.8
		c0-0.3-14.4,3.1-26,3.3C113.9,127.7,113.4,130.5,114.3,130.9z"/>
	<path style="fill:#C43B3B;" d="M137.8,142.5c-0.3-3.4-4.6-5.9-9.7-5.4c-5,0.4-8.9,3.6-8.6,7c0.1,0.7,0.3,1.4,0.7,2
		C126.9,146.1,132.9,145.1,137.8,142.5z"/>
	<path style="fill:none;stroke:#000000;stroke-linecap:round;stroke-linejoin:round;stroke-miterlimit:10;" d="M96.5,125.9
		c19.8,3.3,45.3-0.7,56.4-6.9c0,0-3.3,25.4-27.3,26.8C109.6,146.8,99.7,131.6,96.5,125.9z"/>
	<path style="fill:none;stroke:#0A0606;stroke-width:3;stroke-linecap:round;stroke-linejoin:round;stroke-miterlimit:10;" d="
		M196.5,91.7c-0.1,19.1-6.6,33.9-18.2,45.4"/>
	<path style="fill:none;stroke:#0A0606;stroke-width:3;stroke-linecap:round;stroke-linejoin:round;stroke-miterlimit:10;" d="
		M203.8,101.4c0.3,12.9-5.1,22.8-13.4,31.1"/>
	<path style="fill:none;stroke:#0A0606;stroke-width:3;stroke-linecap:round;stroke-linejoin:round;stroke-miterlimit:10;" d="
		M210.4,109.9c-0.7,7-3.1,12.1-6.6,16.1"/>
	<g>
		<path style="fill:none;stroke:#000000;stroke-width:10.5791;stroke-linecap:round;stroke-linejoin:round;" d="M283.7,92.9
			c17,5.7,29.3,21.8,29.3,40.7c0,23.7-19.2,42.9-42.9,42.9s-42.9-19.2-42.9-42.9c0-14.8,7.4-27.8,18.8-35.5"/>
		<g>
			<polygon points="244.7,118 244.4,101 231.8,89.5 272.1,88.5 			"/>
		</g>
	</g>
</g>
</svg>
