<?xml version="1.0" encoding="utf-8"?>
<!-- Generator: Adobe Illustrator 27.9.4, SVG Export Plug-In . SVG Version: 9.03 Build 54784)  -->
<svg version="1.1" xmlns="http://www.w3.org/2000/svg" xmlns:xlink="http://www.w3.org/1999/xlink" x="0px" y="0px"
	 viewBox="0 0 342.6 430.9" style="enable-background:new 0 0 342.6 430.9;" xml:space="preserve">
<g id="Layer_2">
</g>
<g id="svg">
	<path style="fill:none;stroke:#000000;stroke-width:3;stroke-linecap:round;stroke-linejoin:round;stroke-miterlimit:10;" d="
		M168.5,155.1c14,1.1,28.9,9.2,38.2,8.4s28.1-2.2,39.4-8"/>
	<path style="fill:none;stroke:#000000;stroke-width:3;stroke-linecap:round;stroke-linejoin:round;stroke-miterlimit:10;" d="
		M28.5,185.4c-8.1,11.2-9.9,7.1-7.8,63.8"/>
	<path style="fill:#EECFAC;stroke:#000000;stroke-linecap:round;stroke-linejoin:round;stroke-miterlimit:10;" d="M20.7,249.2
		c3.8,0.3,6.6,2.6,8.7,7.3c1,2.2,2,4.7,1.6,8.3c-0.6,5.1-3.5,5.3-3.8,3.3c-0.3-2.3,0.2-8.2-1.9-8.5s-1.9,2.2-3.2,5
		c-1.3,2.8,1.8,12-2.2,11.5s-2.6-8.4-2.2-11.5c0,0-6.3,12.5-8.3,9.4c-2-3,2.7-9.1,3.6-12.4c0,0-3.8,7.3-6.2,6.1
		c-2-1.1,0.7-5.4,2.7-9.7C12.2,251.8,16.4,248.9,20.7,249.2z"/>
	<path style="fill:none;stroke:#000000;stroke-width:3;stroke-linecap:round;stroke-linejoin:round;stroke-miterlimit:10;" d="
		M74.3,322.1c-0.3,16.3,1.6,48.9-11.9,89.3"/>
	<path style="fill:none;stroke:#000000;stroke-width:3;stroke-linecap:round;stroke-linejoin:round;stroke-miterlimit:10;" d="
		M120.9,314.5c0,0,3.6,26.5,2.5,43c-1.1,16.6-5.8,45.5-5.8,45.5"/>
	<path style="fill:#356488;stroke:#000000;stroke-miterlimit:10;" d="M84.7,421.4c-0.3,3.7-7.8,6.2-16.9,5.6s-16.2-4.2-15.9-7.9
		c0.2-2.8,4.5-7.2,10.4-7.8c2-0.2,4.2,2,6.4,2.2C77.8,414.2,85,417.7,84.7,421.4z"/>
	<path style="fill:#356488;stroke:#000000;stroke-miterlimit:10;" d="M141.1,413.2c-0.3,3.7-7.8,6.2-16.9,5.6
		c-9.1-0.6-16.2-4.2-15.9-7.9c0.2-2.6,4-7.2,9.4-8c2.3-0.3,4.8,2.2,7.5,2.4C134.2,406,141.3,409.5,141.1,413.2z"/>
	
		<rect x="68.3" y="145.9" style="fill:#EFCFAC;stroke:#000000;stroke-linecap:round;stroke-linejoin:round;stroke-miterlimit:10;" width="56.4" height="47.5"/>
	<path style="fill:#D56C3C;stroke:#000000;stroke-linecap:round;stroke-linejoin:round;stroke-miterlimit:10;" d="M45.1,280.2
		l5.6,38.6c0,0,6,3.3,23.6,3.3s27.3-6.1,27.3-6.1s1.1-5.9,2.3-11c1.2-5.4,6.4-6.4,6.4-6.4s-6.5,2.5-7.1,10.8c-0.1,1.7,0,1.7,1.7,2.5
		c5.1,2.5,17.2,2.8,20.9,2.2c5-0.9,9.6-4.4,9.6-4.4l-3.7-22.4"/>
	<path style="fill:#4885BB;stroke:#000000;stroke-linecap:round;stroke-linejoin:round;stroke-miterlimit:10;" d="M50.9,150.1
		c0,0-25.8,18.9-26.7,23.1s1.8,9,6.9,14.7s8.8,10.1,11.6,9.5c2.8-0.6,7.5-6.6,7.5-6.6l20.4-33L50.9,150.1z"/>
	<path style="fill:#4885BB;stroke:#000000;stroke-linecap:round;stroke-linejoin:round;stroke-miterlimit:10;" d="M117.9,143.7
		c0,0,43.5-4.4,47.3-2.7c3.8,1.7,1.6,6.6,3.2,14.1c1.6,7.5-1.2,12.5-3.4,14.4s-10.5,0-10.5,0l-40-12L117.9,143.7z"/>
	<path style="fill:#A39F47;stroke:#000000;stroke-linecap:round;stroke-linejoin:round;stroke-miterlimit:10;" d="M68.2,153.6
		c0,0-5.4,15-9.7,22c-4.3,6.9-8.3,15.2-8.3,15.2s-1.1,24.4-4.5,41.1c-3.4,16.7-10.4,40.1-10.4,40.1s16.7,22,61.2,20.1
		s45.1-11.1,45.1-11.1s-0.8-77.1-2.5-88.3c-1.7-11.2-4.4-31.7-9.9-43.4h-13.3c0,0,6.6,25.5-18.3,25.5s-16.6-25.5-16.6-25.5
		L68.2,153.6z"/>
	
		<ellipse style="fill:#EFCFAC;stroke:#000000;stroke-linecap:round;stroke-linejoin:round;stroke-miterlimit:10;" cx="90.3" cy="86.2" rx="78.1" ry="72.9"/>
	<path style="fill:#EFCFAC;stroke:#000000;stroke-linecap:round;stroke-linejoin:round;stroke-miterlimit:10;" d="M16.7,90.8
		c0,0-1.7-3.8-8.7-3.2c-6.9,0.6-5.2,7.6-3.3,10.2c1.9,2.6,5.3,8.9,9.2,8.4c3.9-0.6,4.6-2.3,4.6-2.3"/>
	<ellipse cx="79.9" cy="83.9" rx="3.1" ry="5.2"/>
	<ellipse cx="141.7" cy="73.5" rx="3.1" ry="5.2"/>
	<path style="fill:none;stroke:#000000;stroke-linecap:round;stroke-linejoin:round;stroke-miterlimit:10;" d="M74.9,120.9
		c5.6,7.3,14.9,13.3,30.6,13.3c40.3,0,42.3-38,42.3-38"/>
	<path style="fill:none;stroke:#000000;stroke-linecap:round;stroke-linejoin:round;stroke-miterlimit:10;" d="M144.8,93.1
		c0,0,0.8,4,4.4,3.6"/>
	<path style="fill:none;stroke:#000000;stroke-linecap:round;stroke-linejoin:round;stroke-miterlimit:10;" d="M71.2,122.4
		c0,0,4.9,0.7,3.7-4.9"/>
	<path style="fill:none;stroke:#000000;stroke-linecap:round;stroke-linejoin:round;stroke-miterlimit:10;" d="M115.8,138.7
		c2.8,0.5,6.4-2.6,6.4-2.6"/>
	<path style="fill:#853624;stroke:#000000;stroke-linecap:round;stroke-linejoin:round;stroke-miterlimit:10;" d="M12.2,76.5
		c0,0,4.3-8,16.4-13.1S55.2,55.2,63,42.3s10.2-14.1,10.2-14.1S84,37.1,94.1,41s25.2,4.7,25.2,4.7s-11.7-2.8-15-10.6
		c0,0,17,9.5,35.8,8.7s17-4.9,22.8-4.2c0,0-3.2-1.1-2.2-3.1c1-2,8.1-2.4,8.4-10.3l-18.6-1c0,0,7.7-3.7,8.1-12.1c0,0-17.2,3-35.2-3.6
		S92.7,2,77.8,6.4S57.4,19.6,57.2,22.9c0,0,0.6-11.1,5-14.5c0,0-10.4,7.2-14.3,13.2c0,0-9.5-4.9-17.3,1.6c0,0,8.4,0.9,8.7,2.8
		c0,0-11.1,6.8-20.6,21S12.2,76.5,12.2,76.5z"/>
	<g>
		<g>
			<path style="fill:#3F2000;stroke:#000000;stroke-miterlimit:10;" d="M263.3,305.6L263.3,305.6c-4,0-7.3-3.3-7.3-7.3V123.6
				c0-4,3.3-7.3,7.3-7.3h0c4,0,7.3,3.3,7.3,7.3v174.8C270.6,302.4,267.3,305.6,263.3,305.6z"/>
			<polygon style="fill:#EA3F3F;stroke:#000000;stroke-linecap:round;stroke-linejoin:round;stroke-miterlimit:10;" points="
				300.8,4.6 225.9,4.6 188.5,69.4 225.9,134.3 300.8,134.3 338.2,69.4 			"/>
		</g>
		<g>
			<g>
				<path style="fill:#FFFFFF;" d="M227.2,55.8c-8.1-3.9-17.8,2.6-14.9,11.9c1.3,4.3,4.9,6.3,9,7.4c1.5,0.4,3.8,0.6,4.8,2.1
					c1.4,2.2,0,4.4-2.1,5.2c-2,0.8-8.9,0.8-9.8-2c-1.2-3.9-7.2-2.2-6.1,1.7c2.8,9.3,20.3,9.6,24,0.8c1.7-4.1,0.3-9.2-3.4-11.8
					c-2.2-1.5-4.7-1.6-7.1-2.5c-5.8-2.1-3.1-10.1,2.4-7.4C227.7,63,230.9,57.6,227.2,55.8L227.2,55.8z"/>
			</g>
		</g>
		<g>
			<g>
				<path style="fill:#FFFFFF;" d="M241.9,59.2c0.5,8.7,1.5,17.3,2.9,25.9c0.7,4,6.8,2.3,6.1-1.7c-1.4-8-2.3-16.1-2.7-24.2
					C248,55.2,241.7,55.2,241.9,59.2L241.9,59.2z"/>
			</g>
		</g>
		<g>
			<g>
				<path style="fill:#FFFFFF;" d="M236.3,61.3c7.1,0.8,14.2,0.8,21.4,0c4-0.4,4-6.7,0-6.3c-7.1,0.8-14.2,0.8-21.4,0
					C232.3,54.6,232.3,60.9,236.3,61.3L236.3,61.3z"/>
			</g>
		</g>
		<g>
			<g>
				<path style="fill:#FFFFFF;" d="M273.8,54.8c-7.5,1-8.9,10-9.9,16.3c-1.2,7.6,2.4,15.3,10.9,15.3c8.5,0.1,13.6-7.7,14-15.5
					c0.4-8.9-5.2-15.8-14.2-16.3c-4.1-0.2-4,6.1,0,6.3c12.6,0.7,8.4,22.6-1.5,18.9c-4.8-1.8-3.2-7.9-2.1-11.7c0.5-1.7,0.8-4,1.7-5.6
					c0.8-1.5,0.6-1.4,2.7-1.7C279.5,60.3,277.8,54.3,273.8,54.8L273.8,54.8z"/>
			</g>
		</g>
		<g>
			<g>
				<path style="fill:#FFFFFF;" d="M295.2,57c-1.4,8.7-1.9,17.4-1.5,26.1c0.2,4,6.5,4.1,6.3,0c-0.4-8.2,0-16.4,1.3-24.5
					C301.9,54.7,295.8,53,295.2,57L295.2,57z"/>
			</g>
		</g>
		<g>
			<g>
				<path style="fill:#FFFFFF;" d="M300.3,60.3c3.2-0.6,7.2-0.6,10.1,1.1c2.4,1.4,3,4.1-0.3,4.9c-3.2,0.8-7.4-0.3-10.6-0.8
					c-4-0.6-5.7,5.5-1.7,6.1c6.6,1,17.1,3.3,20.4-4.6c1.7-4.1-0.4-8.2-3.9-10.5c-4.6-3.1-10.5-3.2-15.8-2.3
					C294.7,55,296.4,61.1,300.3,60.3L300.3,60.3z"/>
			</g>
		</g>
	</g>
	<path style="fill:#EECFAC;stroke:#000000;stroke-linecap:round;stroke-linejoin:round;stroke-miterlimit:10;" d="M246,154.6
		c-0.2,7.8,10,8.3,10,8.3l0-14c0,0,7.6-4.9,7.6-6.5c0-1.6-7.6,0.2-7.6,0.2S246.2,146.5,246,154.6z"/>
	<path style="fill:#EECFAC;stroke:#000000;stroke-linecap:round;stroke-linejoin:round;stroke-miterlimit:10;" d="M265.7,147.2
		c-1.9,2.1-0.1,3.5-0.3,5.3c-0.1,1.1-1.1,2.3-1.1,3.5c0,1,1.3,2,1.4,2.9c0.4,2.1-1.4,3.3,0.8,4.1c1.9,0.7,6.9-0.2,7.9-1.6
		c0.9-1.4-0.1-11.1-0.7-12.7C273.3,147.2,267.2,145.5,265.7,147.2z"/>
</g>
</svg>
