<?xml version="1.0" encoding="utf-8"?>
<!-- Generator: Adobe Illustrator 27.9.4, SVG Export Plug-In . SVG Version: 9.03 Build 54784)  -->
<svg version="1.1" xmlns="http://www.w3.org/2000/svg" xmlns:xlink="http://www.w3.org/1999/xlink" x="0px" y="0px"
	 viewBox="0 0 409.3 430.9" style="enable-background:new 0 0 409.3 430.9;" xml:space="preserve">
<g id="Layer_2">
</g>
<g id="svg">
	<path style="fill:none;stroke:#000000;stroke-width:3;stroke-linecap:round;stroke-linejoin:round;stroke-miterlimit:10;" d="
		M155.9,193.8c7.8,11.6,13.8,36.5,21.6,34.8s22.3-34.1,27.2-39.4"/>
	<path style="fill:none;stroke:#000000;stroke-width:3;stroke-linecap:round;stroke-linejoin:round;stroke-miterlimit:10;" d="
		M29.8,185.8c-8.1,11.2-9.9,7.1-7.8,63.8"/>
	<path style="fill:#EECFAC;stroke:#000000;stroke-linecap:round;stroke-linejoin:round;stroke-miterlimit:10;" d="M226.4,172.1
		c0.1,1.8,5,5.3,7.3,7.2c2.3,1.9,5.4,6.3,3.5,7.9s-6.6,0.3-8.1-2.7c-1.5-3-2.2-2.8-2.2-2.8s4,8.4,0.5,10.1c-3.6,1.7-7.6-3.8-8.3-4.7
		s2.7,6.5-0.6,7.7s-6.2-0.3-6.5-2.7c-0.3-2.4-3.1,2.9-6,1.8c-2.9-1.1-5.5-2-5.1-7.2c0.4-5.2,0.1-4.9,9.4-13.3
		c9.3-8.4,24.8-18.2,27.6-15S226.4,172.1,226.4,172.1z"/>
	<path style="fill:#EECFAC;stroke:#000000;stroke-linecap:round;stroke-linejoin:round;stroke-miterlimit:10;" d="M21.9,249.6
		c3.8,0.3,6.6,2.6,8.7,7.3c1,2.2,2,4.7,1.6,8.3c-0.6,5.1-3.5,5.3-3.8,3.3c-0.3-2.3,0.2-8.2-1.9-8.5c-2.2-0.3-1.9,2.2-3.2,5
		c-1.3,2.8,1.8,12-2.2,11.5s-2.6-8.4-2.2-11.5c0,0-6.3,12.5-8.3,9.4s2.7-9.1,3.6-12.4c0,0-3.8,7.3-6.2,6.1c-2-1.1,0.7-5.4,2.7-9.7
		C13.4,252.1,17.6,249.3,21.9,249.6z"/>
	<path style="fill:none;stroke:#000000;stroke-width:3;stroke-linecap:round;stroke-linejoin:round;stroke-miterlimit:10;" d="
		M256.3,193.5c-8.1,11.2-9.9,7.1-7.8,63.8"/>
	<path style="fill:#EFDDB9;stroke:#000000;stroke-linecap:round;stroke-linejoin:round;stroke-miterlimit:10;" d="M248.5,257.3
		c3.8,0.3,6.6,2.6,8.7,7.3c1,2.2,2,4.7,1.6,8.3c-0.6,5.1-3.5,5.3-3.8,3.3c-0.3-2.3,0.2-8.2-1.9-8.5c-2.2-0.3-1.9,2.2-3.2,5
		c-1.3,2.8,1.8,12-2.2,11.5s-2.6-8.4-2.2-11.5c0,0-6.3,12.5-8.3,9.4c-2-3,2.7-9.1,3.6-12.4c0,0-3.8,7.3-6.2,6.1
		c-2-1.1,0.7-5.4,2.7-9.7C239.9,259.9,244.2,257,248.5,257.3z"/>
	<path style="fill:none;stroke:#000000;stroke-width:3;stroke-linecap:round;stroke-linejoin:round;stroke-miterlimit:10;" d="
		M379.5,187.5c8.1,11.2,9.9,7.1,7.8,63.8"/>
	<path style="fill:#EFDDB9;stroke:#000000;stroke-linecap:round;stroke-linejoin:round;stroke-miterlimit:10;" d="M387.3,251.3
		c-3.8,0.3-6.6,2.6-8.7,7.3c-1,2.2-2,4.7-1.6,8.3c0.6,5.1,3.5,5.3,3.8,3.3c0.3-2.3-0.2-8.2,1.9-8.5s1.9,2.2,3.2,5
		c1.3,2.8-1.8,12,2.2,11.5c3.9-0.5,2.6-8.4,2.2-11.5c0,0,6.3,12.5,8.3,9.4c2-3-2.7-9.1-3.6-12.4c0,0,3.8,7.3,6.2,6.1
		c2-1.1-0.7-5.4-2.7-9.7C395.8,253.9,391.6,251,387.3,251.3z"/>
	<path style="fill:none;stroke:#000000;stroke-width:3;stroke-linecap:round;stroke-linejoin:round;stroke-miterlimit:10;" d="
		M75.5,322.5c-0.3,16.3,1.6,48.9-11.9,89.3"/>
	<path style="fill:none;stroke:#000000;stroke-width:3;stroke-linecap:round;stroke-linejoin:round;stroke-miterlimit:10;" d="
		M122.2,314.9c0,0,3.6,26.5,2.5,43c-1.1,16.6-5.8,45.5-5.8,45.5"/>
	<path style="fill:#356488;stroke:#000000;stroke-miterlimit:10;" d="M85.9,421.8c-0.3,3.7-7.8,6.2-16.9,5.6
		c-9.1-0.6-16.2-4.2-15.9-7.9c0.2-2.8,4.5-7.2,10.4-7.8c2-0.2,4.2,2,6.4,2.2C79.1,414.6,86.2,418.1,85.9,421.8z"/>
	<path style="fill:#356488;stroke:#000000;stroke-miterlimit:10;" d="M142.3,413.6c-0.3,3.7-7.8,6.2-16.9,5.6
		c-9.1-0.6-16.2-4.2-15.9-7.9c0.2-2.6,4-7.2,9.4-8c2.3-0.3,4.8,2.2,7.5,2.4C135.4,406.4,142.5,409.9,142.3,413.6z"/>
	
		<rect x="69.5" y="146.2" style="fill:#EFCFAC;stroke:#000000;stroke-linecap:round;stroke-linejoin:round;stroke-miterlimit:10;" width="56.4" height="47.5"/>
	<path style="fill:#D56C3C;stroke:#000000;stroke-linecap:round;stroke-linejoin:round;stroke-miterlimit:10;" d="M46.3,280.6
		l5.6,38.6c0,0,6,3.3,23.6,3.3s27.3-6.1,27.3-6.1s1.1-5.9,2.3-11c1.2-5.4,6.4-6.4,6.4-6.4s-6.5,2.5-7.1,10.8c-0.1,1.7,0,1.7,1.7,2.5
		c5.1,2.5,17.2,2.8,20.9,2.2c5-0.9,9.6-4.4,9.6-4.4l-3.7-22.4"/>
	<path style="fill:#4885BB;stroke:#000000;stroke-linecap:round;stroke-linejoin:round;stroke-miterlimit:10;" d="M52.1,150.4
		c0,0-25.8,18.9-26.7,23.1s1.8,9,6.9,14.7c5.1,5.7,8.8,10.1,11.6,9.5c2.8-0.6,7.5-6.6,7.5-6.6l20.4-33L52.1,150.4z"/>
	<path style="fill:#4885BB;stroke:#000000;stroke-linecap:round;stroke-linejoin:round;stroke-miterlimit:10;" d="M135.4,146.2
		c0,0,29.2,32.5,30.1,36.6c0.9,4.1-4.4,5.2-9.5,10.9s-10.8,6.4-13.6,5.8c-2.8-0.6-6.2-8.5-6.2-8.5l-13.9-39.4L135.4,146.2z"/>
	<path style="fill:#A39F47;stroke:#000000;stroke-linecap:round;stroke-linejoin:round;stroke-miterlimit:10;" d="M69.4,153.9
		c0,0-5.4,15-9.7,22s-8.3,15.2-8.3,15.2s-1.1,24.4-4.5,41.1s-10.4,40.1-10.4,40.1s16.7,22,61.2,20.1s45.1-11.1,45.1-11.1
		s-0.8-77.1-2.5-88.3c-1.7-11.2-4.4-31.7-9.9-43.4h-13.3c0,0,6.6,25.5-18.3,25.5s-16.6-25.5-16.6-25.5L69.4,153.9z"/>
	
		<ellipse style="fill:#EFCFAC;stroke:#000000;stroke-linecap:round;stroke-linejoin:round;stroke-miterlimit:10;" cx="91.5" cy="86.6" rx="78.1" ry="72.9"/>
	<path style="fill:#EFCFAC;stroke:#000000;stroke-linecap:round;stroke-linejoin:round;stroke-miterlimit:10;" d="M18,91.2
		c0,0-1.7-3.8-8.7-3.2C2.4,88.6,4.1,95.6,6,98.2s5.3,8.9,9.2,8.4c3.9-0.6,4.6-2.3,4.6-2.3"/>
	<ellipse cx="81.1" cy="84.2" rx="3.1" ry="5.2"/>
	<ellipse cx="142.9" cy="73.9" rx="3.1" ry="5.2"/>
	<path style="fill:none;stroke:#000000;stroke-linecap:round;stroke-linejoin:round;stroke-miterlimit:10;" d="M76.2,121.3
		c5.6,7.3,14.9,13.3,30.6,13.3c40.3,0,42.3-38,42.3-38"/>
	<path style="fill:none;stroke:#000000;stroke-linecap:round;stroke-linejoin:round;stroke-miterlimit:10;" d="M146.1,93.5
		c0,0,0.8,4,4.4,3.6"/>
	<path style="fill:none;stroke:#000000;stroke-linecap:round;stroke-linejoin:round;stroke-miterlimit:10;" d="M72.5,122.7
		c0,0,4.9,0.7,3.7-4.9"/>
	<path style="fill:none;stroke:#000000;stroke-linecap:round;stroke-linejoin:round;stroke-miterlimit:10;" d="M117,139
		c2.8,0.5,6.4-2.6,6.4-2.6"/>
	<path style="fill:#853624;stroke:#000000;stroke-linecap:round;stroke-linejoin:round;stroke-miterlimit:10;" d="M13.4,76.9
		c0,0,4.3-8,16.4-13.1s26.6-8.2,34.4-21.1s10.2-14.1,10.2-14.1s10.8,8.9,20.9,12.8s25.2,4.7,25.2,4.7s-11.7-2.8-15-10.6
		c0,0,17,9.5,35.8,8.7s17-4.9,22.8-4.2c0,0-3.2-1.1-2.2-3.1c1-2,8.1-2.4,8.4-10.3l-18.6-1c0,0,7.7-3.7,8.1-12.1c0,0-17.2,3-35.2-3.6
		S93.9,2.4,79,6.8S58.6,20,58.4,23.3c0,0,0.6-11.1,5-14.5c0,0-10.4,7.2-14.3,13.2c0,0-9.5-4.9-17.3,1.6c0,0,8.4,0.9,8.7,2.8
		c0,0-11.1,6.8-20.6,21S13.4,76.9,13.4,76.9z"/>
	<path style="fill:none;stroke:#000000;stroke-width:3;stroke-linecap:round;stroke-linejoin:round;stroke-miterlimit:10;" d="
		M336.8,322.2c0.3,16.3-1.6,48.9,11.9,89.3"/>
	<path style="fill:none;stroke:#000000;stroke-width:3;stroke-linecap:round;stroke-linejoin:round;stroke-miterlimit:10;" d="
		M290.1,314.6c0,0-3.6,26.5-2.5,43c1.1,16.6,5.8,45.5,5.8,45.5"/>
	<path style="fill:#EF9AEF;stroke:#000000;stroke-miterlimit:10;" d="M326.3,421.6c0.3,3.7,7.8,6.2,16.9,5.6s16.2-4.2,15.9-7.9
		c-0.2-2.8-4.5-7.2-10.4-7.8c-2-0.2-4.2,2-6.4,2.2C333.2,414.3,326.1,417.9,326.3,421.6z"/>
	<path style="fill:#EF9AEF;stroke:#000000;stroke-miterlimit:10;" d="M270,413.4c0.3,3.7,7.8,6.2,16.9,5.6s16.2-4.2,15.9-7.9
		c-0.2-2.6-4-7.2-9.4-8c-2.3-0.3-4.8,2.2-7.5,2.4C276.8,406.1,269.7,409.7,270,413.4z"/>
	
		<rect x="286.3" y="146" transform="matrix(-1 4.486399e-11 -4.486399e-11 -1 629.0545 339.5474)" style="fill:#E2D0AA;stroke:#000000;stroke-linecap:round;stroke-linejoin:round;stroke-miterlimit:10;" width="56.4" height="47.5"/>
	<path style="fill:#7EC3CE;stroke:#000000;stroke-linecap:round;stroke-linejoin:round;stroke-miterlimit:10;" d="M365.9,280.3
		l-5.6,38.6c0,0-6,3.3-23.6,3.3s-27.3-6.1-27.3-6.1s-1.1-5.9-2.3-11c-1.2-5.4-6.4-6.4-6.4-6.4s6.5,2.5,7.1,10.8
		c0.1,1.7,0,1.7-1.7,2.5c-5.1,2.5-17.2,2.8-20.9,2.2c-5-0.9-9.6-4.4-9.6-4.4l3.7-22.4"/>
	<g>
		<path style="fill:#C13D1A;stroke:#000000;stroke-linecap:round;stroke-linejoin:round;stroke-miterlimit:10;" d="M360.1,150.2
			c0,0,25.8,18.9,26.7,23.1c0.9,4.1-1.8,9-6.9,14.7c-5.1,5.7-8.8,10.1-11.6,9.5s-7.5-6.6-7.5-6.6l-20.4-33L360.1,150.2z"/>
		<path style="fill:#C13D1A;stroke:#000000;stroke-linecap:round;stroke-linejoin:round;stroke-miterlimit:10;" d="M276.9,146
			c0,0-29.2,32.5-30.1,36.6s4.4,5.2,9.5,10.9c5.1,5.7,10.8,6.4,13.6,5.8c2.8-0.6,6.2-8.5,6.2-8.5l13.9-39.4L276.9,146z"/>
	</g>
	<path style="fill:#DD7F62;stroke:#000000;stroke-linecap:round;stroke-linejoin:round;stroke-miterlimit:10;" d="M342.8,153.7
		c0,0,5.4,15,9.7,22c4.3,6.9,8.3,15.2,8.3,15.2s1.1,24.4,4.5,41.1s10.4,40.1,10.4,40.1s-16.7,22-61.2,20.1
		c-44.5-1.8-45.1-11.1-45.1-11.1s0.8-77.1,2.5-88.3c1.7-11.2,4.4-31.7,9.9-43.4h13.3c0,0-6.6,25.5,18.3,25.5s16.6-25.5,16.6-25.5
		L342.8,153.7z"/>
	
		<ellipse style="fill:#EFDDB9;stroke:#000000;stroke-linecap:round;stroke-linejoin:round;stroke-miterlimit:10;" cx="320.7" cy="86.3" rx="78.1" ry="72.9"/>
	<path style="fill:#EFDDB9;stroke:#000000;stroke-linecap:round;stroke-linejoin:round;stroke-miterlimit:10;" d="M394.3,90.9
		c0,0,1.7-3.8,8.7-3.2c6.9,0.6,5.2,7.6,3.3,10.2c-1.9,2.6-5.3,8.9-9.2,8.4c-3.9-0.6-4.6-2.3-4.6-2.3"/>
	<ellipse cx="331.2" cy="84" rx="3.1" ry="5.2"/>
	<ellipse cx="269.3" cy="73.6" rx="3.1" ry="5.2"/>
	<path style="fill:none;stroke:#000000;stroke-linecap:round;stroke-linejoin:round;stroke-miterlimit:10;" d="M322.6,125.7
		c-4.2,5-11.3,9-23.1,9c-30.4,0-31.2-25.8-31.2-25.8"/>
	<path style="fill:none;stroke:#000000;stroke-linecap:round;stroke-linejoin:round;stroke-miterlimit:10;" d="M269.8,106.8
		c0,0-0.6,2.7-3.3,2.4"/>
	<path style="fill:none;stroke:#000000;stroke-linecap:round;stroke-linejoin:round;stroke-miterlimit:10;" d="M325.4,126.7
		c0,0-3.7,0.5-2.8-3.3"/>
	<path style="fill:#8E6F86;stroke:#000000;stroke-width:1.2403;stroke-miterlimit:10;" d="M271.5,10.6v6.5h-7c0,0-6.5,2-6.8,7.3
		c-0.3,5.3-0.3,12.6,11,12.9c11.4,0.3,13.3,2.9,27,0c13.8-2.9,17.5-5.3,17.5-5.3s-9.5,8.8-14.6,9.2c-5.1,0.3,25.5,7.6,36,7.6
		c10.5,0,18.9,0.5,24.1-3.9c0,0,0.2,7.1,2.1,9.2s17.1,9.5,23.1,14.5S398.2,84,398.2,84s1.9-18.2-4.1-33.1c-5.9-14.9-19-20-19-20
		s1.7-6.3,9.2-3.1c0,0-7.3-4.4-12.9-1.7c0,0-4.4-8.5-13.1-15.5c0,0,4.1,8.7,3.4,14.1c0,0-12.2-21.2-35.5-21.1
		c-23.3,0.2-25.7,3.7-35.2,4.6C281.5,9.1,271.5,10.6,271.5,10.6z"/>
</g>
</svg>
